<svg width="199" height="30" viewBox="0 0 199 30" fill="none" xmlns="http://www.w3.org/2000/svg">
<g clip-path="url(#clip0_42_213)">
<path d="M60.0823 29.5238C59.5651 29.2112 59.141 28.7578 58.8561 28.2129C58.5548 27.6387 58.4014 26.9941 58.4105 26.3409C58.4014 25.6878 58.5548 25.0432 58.8561 24.469C59.1399 23.9258 59.563 23.474 60.079 23.1633C60.6102 22.8444 61.2152 22.6804 61.8295 22.6888C62.2734 22.6838 62.714 22.7691 63.126 22.9399C63.4982 23.0946 63.837 23.3241 64.1227 23.6152C64.3837 23.8787 64.5861 24.1978 64.7157 24.5504L63.5951 25.0924C63.4653 24.7321 63.2314 24.4219 62.925 24.204C62.6036 23.9759 62.221 23.8578 61.8312 23.8663C61.4338 23.8598 61.0425 23.9671 60.7005 24.1763C60.3695 24.3827 60.1031 24.6833 59.9332 25.0422C59.7462 25.4449 59.6533 25.8874 59.6619 26.334C59.6533 26.7823 59.7462 27.2265 59.9332 27.6311C60.1027 27.9903 60.3692 28.291 60.7005 28.4969C61.0426 28.7056 61.434 28.8123 61.8312 28.8052C62.2207 28.8135 62.6031 28.6961 62.925 28.4692C63.2318 28.251 63.4658 27.9401 63.5951 27.5791L64.7157 28.1211C64.5867 28.4745 64.3843 28.7943 64.1227 29.058C63.8369 29.3485 63.4981 29.5775 63.126 29.7316C62.7143 29.9039 62.2736 29.9898 61.8295 29.9844C61.2175 29.9972 60.6137 29.838 60.0823 29.5238Z" fill="black"/>
<path d="M67.1855 29.5208C66.6496 29.2102 66.205 28.7554 65.899 28.2047C65.5836 27.6384 65.4216 26.9947 65.43 26.3413C65.4219 25.6885 65.5839 25.0455 65.899 24.4798C66.2042 23.9292 66.649 23.4753 67.1855 23.1671C67.7419 22.8486 68.3688 22.6851 69.0048 22.6926C69.6412 22.6849 70.2687 22.8484 70.8256 23.1671C71.3632 23.4757 71.8096 23.9294 72.1172 24.4798C72.4346 25.0448 72.5984 25.688 72.5912 26.3413C72.5981 26.9952 72.4344 27.6389 72.1172 28.2047C71.8088 28.7553 71.3626 29.2099 70.8256 29.5208C70.2697 29.8426 69.6419 30.008 69.0048 30.0004C68.3682 30.0078 67.7409 29.8424 67.1855 29.5208ZM66.9829 27.6159C67.1769 27.9866 67.4669 28.2942 67.8204 28.5042C68.1818 28.7195 68.5928 28.8296 69.0098 28.8229C69.4273 28.8298 69.8389 28.7197 70.2008 28.5042C70.5543 28.2942 70.8443 27.9866 71.0384 27.6159C71.243 27.2254 71.3474 26.7872 71.3416 26.3431C71.3475 25.9006 71.2431 25.4641 71.0384 25.0755C70.8428 24.7068 70.5531 24.4008 70.2008 24.1906C69.8386 23.9759 69.4272 23.8658 69.0098 23.8719C68.5929 23.8661 68.1821 23.9761 67.8204 24.1906C67.4682 24.4008 67.1785 24.7068 66.9829 25.0755C66.7782 25.4641 66.6738 25.9006 66.6797 26.3431C66.6741 26.7866 66.7785 27.2242 66.9829 27.6141V27.6159Z" fill="black"/>
<path d="M73.6133 22.8066H74.5865L77.8497 27.3489V22.8066H79.0993V29.8858H78.116L74.8629 25.2587V29.8858H73.6133V22.8066Z" fill="black"/>
<path d="M81.3741 29.6867C81.0088 29.5029 80.6917 29.2308 80.4495 28.8936C80.2386 28.5959 80.0945 28.2534 80.0273 27.891L81.1999 27.5671C81.2752 27.9255 81.4704 28.245 81.7511 28.4694C82.0534 28.6938 82.4194 28.8077 82.7913 28.7932C83.0698 28.8059 83.3439 28.7184 83.5669 28.5456C83.6582 28.4788 83.733 28.3906 83.7851 28.2883C83.8372 28.186 83.8652 28.0724 83.8668 27.9568C83.8678 27.8555 83.8492 27.7551 83.8121 27.6614C83.775 27.5678 83.7201 27.4827 83.6507 27.4113C83.4921 27.2471 83.2876 27.1386 83.066 27.1013L82.0375 26.8918C81.5388 26.8111 81.0831 26.5526 80.7493 26.161C80.4358 25.7733 80.2696 25.2808 80.2819 24.7756C80.2831 24.4004 80.396 24.0346 80.6053 23.728C80.8175 23.4065 81.1059 23.1466 81.4428 22.9729C81.7916 22.7901 82.1775 22.6957 82.5685 22.6976C83.0147 22.6841 83.4579 22.7753 83.8651 22.9643C84.1921 23.1153 84.4793 23.3451 84.7027 23.6345C84.8937 23.8848 85.0302 24.1748 85.103 24.4847L83.9304 24.864C83.8347 24.5678 83.6513 24.3103 83.4061 24.128C83.1542 23.97 82.8629 23.8923 82.5685 23.9046C82.3939 23.9031 82.2215 23.9453 82.066 24.0275C81.9257 24.1017 81.8059 24.2113 81.7176 24.3462C81.6387 24.4619 81.5955 24.5995 81.5936 24.741C81.5908 24.9427 81.6627 25.1379 81.7946 25.2865C81.943 25.4498 82.1411 25.5556 82.3558 25.5861L83.3307 25.8043C83.8563 25.8988 84.3392 26.1639 84.7094 26.561C85.0306 26.9213 85.2052 27.3958 85.1968 27.8858C85.1974 28.2542 85.095 28.615 84.902 28.9248C84.6957 29.259 84.4065 29.5299 84.0644 29.7093C83.6675 29.9163 83.2274 30.0192 82.783 30.0088C82.2952 30.0192 81.8122 29.9088 81.3741 29.6867Z" fill="black"/>
<path d="M87.4285 29.6573C87.0284 29.4405 86.6943 29.1132 86.4636 28.7117C86.2285 28.3023 86.1074 27.8337 86.1135 27.3576V22.8066H87.3648V27.2918C87.3571 27.4944 87.3894 27.6965 87.4596 27.8859C87.5299 28.0752 87.6367 28.2478 87.7736 28.3931C87.911 28.5354 88.0754 28.6468 88.2564 28.7204C88.4374 28.794 88.6312 28.8282 88.8256 28.8208C89.0202 28.8282 89.2142 28.7941 89.3955 28.7205C89.5768 28.6469 89.7415 28.5354 89.8792 28.3931C90.0158 28.2476 90.1224 28.0749 90.1926 27.8857C90.2629 27.6964 90.2953 27.4943 90.288 27.2918V22.8066H91.5376V27.3645C91.5438 27.8406 91.4227 28.3092 91.1875 28.7187C90.9568 29.1201 90.6228 29.4475 90.2227 29.6642C89.7925 29.899 89.312 30.0181 88.8256 30.0105C88.3386 30.016 87.8581 29.8945 87.4285 29.6573Z" fill="black"/>
<path d="M92.6925 22.8066H93.9439V28.7498H96.8754V29.891H92.6875L92.6925 22.8066Z" fill="black"/>
<path d="M98.2544 23.9461H96.4805V22.8066H101.26V23.9461H99.5141V29.8858H98.2544V23.9461Z" fill="black"/>
<path d="M103.274 22.8066H104.893L107.254 29.8858H105.901L105.413 28.3654H102.767L102.264 29.8858H100.914L103.274 22.8066ZM105.048 27.2242L104.083 24.2405L103.119 27.2242H105.048Z" fill="black"/>
<path d="M107.926 22.8066H108.899L112.162 27.3489V22.8066H113.414V29.8858H112.434L109.18 25.2587V29.8858H107.931L107.926 22.8066Z" fill="black"/>
<path d="M116.119 29.5238C115.602 29.2108 115.177 28.7575 114.891 28.2129C114.59 27.6385 114.437 26.994 114.446 26.3409C114.437 25.6878 114.591 25.0434 114.891 24.469C115.176 23.9262 115.598 23.4745 116.114 23.1632C116.644 22.8452 117.248 22.6813 117.861 22.6888C118.305 22.6838 118.746 22.7691 119.158 22.9399C119.533 23.0938 119.875 23.3233 120.163 23.6152C120.423 23.8795 120.625 24.1984 120.756 24.5503L119.634 25.0924C119.504 24.7321 119.27 24.4219 118.963 24.204C118.642 23.9759 118.259 23.8577 117.87 23.8663C117.473 23.8595 117.082 23.9669 116.741 24.1763C116.409 24.3819 116.142 24.6827 115.972 25.0421C115.785 25.4449 115.692 25.8874 115.7 26.334C115.692 26.7823 115.785 27.2265 115.972 27.631C116.141 27.9907 116.408 28.2916 116.741 28.4969C117.082 28.7058 117.473 28.8125 117.87 28.8051C118.259 28.8135 118.642 28.6961 118.963 28.4692C119.27 28.251 119.504 27.9401 119.634 27.5791L120.756 28.1211C120.626 28.4738 120.423 28.7933 120.163 29.058C119.875 29.3493 119.533 29.5783 119.158 29.7316C118.746 29.9039 118.305 29.9898 117.861 29.9844C117.251 29.9965 116.649 29.8373 116.119 29.5238Z" fill="black"/>
<path d="M123.322 26.7497L121.016 22.8066H122.439L123.947 25.4388L125.455 22.8066H126.879L124.582 26.7411V29.8858H123.322V26.7497Z" fill="black"/>
<path d="M130.153 29.763C129.844 29.618 129.582 29.3834 129.4 29.0876C129.219 28.7852 129.126 28.4352 129.133 28.0798C129.133 27.2624 129.55 26.6009 130.383 26.0953C130.198 25.8657 130.043 25.6133 129.919 25.3437C129.805 25.0845 129.748 24.8024 129.751 24.5177C129.745 24.1806 129.833 23.8487 130.004 23.5618C130.168 23.2901 130.4 23.0689 130.674 22.9211C130.956 22.7678 131.27 22.6892 131.589 22.6925C131.907 22.6896 132.222 22.7681 132.504 22.9211C132.775 23.0651 133.002 23.2838 133.16 23.5531C133.321 23.8264 133.404 24.1408 133.4 24.4605C133.413 24.8586 133.28 25.2471 133.028 25.5481C132.754 25.8572 132.436 26.1217 132.085 26.3325L133.013 27.4062L133.675 26.4174H134.934L133.777 28.2807L135.164 29.886H133.721L133.115 29.2019C132.878 29.4595 132.592 29.6635 132.275 29.8009C131.958 29.9383 131.616 30.0062 131.272 30.0002C130.887 30.0083 130.505 29.9273 130.153 29.763ZM130.644 28.7032C130.83 28.8668 131.07 28.9499 131.314 28.9353C131.522 28.9313 131.726 28.8768 131.909 28.7764C132.093 28.6759 132.251 28.5322 132.371 28.3569L131.113 26.9299C130.641 27.2474 130.405 27.6244 130.405 28.0608C130.398 28.1793 130.416 28.298 130.457 28.4088C130.498 28.5196 130.562 28.62 130.644 28.7032ZM131.395 25.5342C131.641 25.4072 131.867 25.2419 132.065 25.0441C132.14 24.9661 132.199 24.8734 132.239 24.7714C132.279 24.6694 132.299 24.5602 132.298 24.4502C132.299 24.3544 132.283 24.2592 132.249 24.17C132.215 24.0809 132.164 23.9995 132.1 23.9306C132.036 23.8598 131.958 23.804 131.871 23.767C131.784 23.7299 131.691 23.7125 131.597 23.7159C131.504 23.7134 131.411 23.7312 131.324 23.7682C131.237 23.8052 131.159 23.8605 131.095 23.9306C131.028 24.0012 130.975 24.0852 130.94 24.1775C130.905 24.2698 130.889 24.3685 130.892 24.4675C130.889 24.7896 131.056 25.148 131.395 25.5342Z" fill="black"/>
<path d="M137.836 22.8066H142.386V23.9461H139.086V25.7609H142.203V26.9021H139.086V28.7498H142.386V29.891H137.836V22.8066Z" fill="black"/>
<path d="M143.214 22.8066H144.189L147.445 27.3489V22.8066H148.695V29.8858H147.711L144.457 25.2587V29.8858H143.207L143.214 22.8066Z" fill="black"/>
<path d="M151.421 29.5238C150.9 29.2119 150.47 28.7586 150.18 28.2129C149.876 27.6394 149.722 26.9945 149.731 26.3409C149.722 25.6878 149.875 25.0431 150.176 24.469C150.46 23.9254 150.883 23.4735 151.399 23.1632C151.931 22.8444 152.536 22.6804 153.15 22.6888C153.594 22.6838 154.034 22.7691 154.446 22.9399C154.822 23.0935 155.163 23.3231 155.452 23.6152C155.713 23.8787 155.915 24.1978 156.045 24.5503L154.932 25.1028C154.804 24.7388 154.57 24.4249 154.262 24.204C153.937 23.9738 153.549 23.8556 153.155 23.8663C152.757 23.8595 152.366 23.9668 152.024 24.1763C151.693 24.382 151.426 24.6828 151.257 25.0421C151.07 25.4449 150.977 25.8874 150.986 26.334C150.977 26.7832 151.073 27.228 151.265 27.631C151.441 27.9908 151.712 28.2912 152.048 28.4969C152.391 28.7054 152.783 28.812 153.182 28.8051C153.517 28.8085 153.848 28.734 154.152 28.5869C154.438 28.4518 154.683 28.2387 154.86 27.9705C155.036 27.6975 155.127 27.3754 155.122 27.0475V27.0197H153.155V25.927H156.373V26.6388C156.39 27.2739 156.235 27.9013 155.926 28.4501C155.646 28.9372 155.239 29.3337 154.753 29.5948C154.268 29.8538 153.73 29.9875 153.185 29.9844C152.568 29.9978 151.958 29.8386 151.421 29.5238Z" fill="black"/>
<path d="M157.266 22.8066H158.517V29.8858H157.266V22.8066Z" fill="black"/>
<path d="M159.738 22.8066H160.713L163.976 27.3489V22.8066H165.226V29.8858H164.243L160.988 25.2587V29.8858H159.738V22.8066Z" fill="black"/>
<path d="M166.461 22.8066H171.011V23.9461H167.714V25.7609H170.83V26.9021H167.714V28.7498H171.014V29.891H166.464L166.461 22.8066Z" fill="black"/>
<path d="M171.836 22.8066H176.387V23.9461H173.087V25.7609H176.203V26.9021H173.087V28.7498H176.387V29.891H171.836V22.8066Z" fill="black"/>
<path d="M177.216 22.8062H179.762C180.189 22.7975 180.612 22.8868 181.002 23.0677C181.349 23.2303 181.641 23.497 181.839 23.8331C182.046 24.2004 182.15 24.6204 182.137 25.0453C182.148 25.484 182.032 25.9159 181.802 26.2852C181.583 26.6314 181.265 26.8988 180.893 27.0507L182.464 29.8924H181.049L179.633 27.2792H178.461V29.8924H177.211L177.216 22.8062ZM179.781 26.1311C179.928 26.1388 180.074 26.1164 180.213 26.0653C180.352 26.0142 180.479 25.9353 180.588 25.8333C180.69 25.7304 180.77 25.6064 180.822 25.4695C180.875 25.3325 180.899 25.1856 180.893 25.0384C180.899 24.8914 180.875 24.7447 180.823 24.608C180.77 24.4713 180.69 24.3476 180.588 24.2453C180.479 24.1429 180.352 24.0637 180.213 24.0123C180.075 23.9609 179.928 23.9383 179.781 23.9457H178.466V26.1311H179.781Z" fill="black"/>
<path d="M183.199 22.8066H184.449V29.8858H183.199V22.8066Z" fill="black"/>
<path d="M185.672 22.8066H186.643L189.907 27.3489V22.8066H191.166V29.8858H190.183L186.928 25.2587V29.8858H185.679L185.672 22.8066Z" fill="black"/>
<path d="M193.88 29.5238C193.357 29.2129 192.928 28.7594 192.638 28.2129C192.334 27.6396 192.179 26.9947 192.188 26.3409C192.179 25.6879 192.333 25.0434 192.633 24.469C192.918 23.9262 193.341 23.4745 193.856 23.1633C194.388 22.8444 194.994 22.6804 195.609 22.6888C196.052 22.6839 196.492 22.7692 196.903 22.9399C197.279 23.0938 197.62 23.3234 197.909 23.6152C198.169 23.8795 198.371 24.1984 198.502 24.5504L197.389 25.1028C197.26 24.7392 197.026 24.4254 196.719 24.204C196.394 23.9738 196.006 23.8557 195.612 23.8663C195.214 23.8593 194.823 23.9666 194.481 24.1763C194.149 24.382 193.882 24.6827 193.712 25.0422C193.526 25.445 193.433 25.8875 193.443 26.334C193.433 26.7833 193.529 27.2283 193.722 27.6311C193.898 27.9904 194.169 28.2907 194.503 28.4969C194.847 28.7052 195.24 28.8118 195.639 28.8052C195.974 28.8084 196.305 28.7338 196.609 28.587C196.894 28.4513 197.138 28.2383 197.316 27.9705C197.493 27.698 197.585 27.3757 197.579 27.0475V27.0198H195.612V25.9271H198.828V26.6388C198.845 27.2736 198.691 27.9008 198.383 28.4502C198.103 28.9372 197.696 29.3337 197.21 29.5948C196.725 29.8538 196.187 29.9875 195.642 29.9844C195.025 29.9977 194.416 29.8386 193.88 29.5238Z" fill="black"/>
<path d="M59.657 18.631L53.0586 0.439453H56.9968L61.8916 14.9269L66.788 0.439453H70.6911L64.1279 18.631H59.657Z" fill="black"/>
<path d="M77.257 19.0725C75.7673 19.0725 74.5388 18.8157 73.5717 18.3019C72.6686 17.8582 71.9114 17.1501 71.3941 16.2654C70.9208 15.4246 70.6754 14.4675 70.6838 13.4947C70.6838 11.7353 71.346 10.3419 72.6705 9.3144C73.995 8.28692 75.8873 7.77318 78.3476 7.77318H82.9592V7.44935C82.9592 6.03051 82.5868 4.96667 81.8419 4.25783C81.097 3.54898 80.1332 3.19456 78.9506 3.19456C77.995 3.17548 77.0555 3.45098 76.252 3.98595C75.4825 4.51238 75.0151 5.28877 74.8499 6.31509H71.0892C71.1772 5.0745 71.6289 3.89111 72.3841 2.92268C73.146 1.96926 74.1243 1.22561 75.2318 0.758053C76.4291 0.246919 77.7139 -0.00871445 79.0092 0.00650076C81.4661 0.00650076 83.3702 0.672625 84.7215 2.00488C86.0727 3.33714 86.7467 5.15312 86.7433 7.45282V18.6379H83.4802L83.1602 15.5208C82.6525 16.5368 81.9089 17.4067 80.9959 18.0526C80.04 18.7325 78.7937 19.0725 77.257 19.0725ZM78.0025 15.9174C79.0187 15.9174 79.8764 15.6669 80.5755 15.1658C81.2784 14.658 81.8409 13.9691 82.2071 13.1674C82.6066 12.3025 82.8528 11.3705 82.9341 10.4158H78.7462C77.2554 10.4158 76.1944 10.6847 75.5635 11.2227C75.2669 11.4613 75.0278 11.7675 74.8647 12.1175C74.7017 12.4675 74.6192 12.8517 74.6237 13.2402C74.6093 13.6185 74.6841 13.9948 74.8416 14.3366C74.9992 14.6784 75.2349 14.9755 75.5283 15.2022C76.1347 15.6801 76.9583 15.9185 77.9991 15.9174H78.0025Z" fill="black"/>
<path d="M89.7734 0.439453V18.631H93.5325V0.439453H89.7734Z" fill="black"/>
<path d="M100.385 15.3691H91.6523V18.6334H100.385V15.3691Z" fill="black"/>
<path d="M109.898 18.9002C107.696 18.9002 105.88 18.3432 104.449 17.2291C103.76 16.7105 103.185 16.0475 102.761 15.2832C102.337 14.519 102.073 13.6709 101.988 12.7943H105.749C105.95 13.6394 106.423 14.389 107.089 14.9208C107.793 15.5153 108.718 15.812 109.866 15.8109C110.992 15.8109 111.812 15.5684 112.327 15.0836C112.566 14.88 112.759 14.625 112.893 14.3364C113.026 14.0478 113.098 13.7324 113.101 13.4125C113.101 12.4889 112.744 11.8649 112.029 11.5405C111.071 11.1389 110.075 10.8406 109.057 10.6504C108.061 10.4309 107.081 10.1416 106.123 9.78456C105.213 9.46188 104.384 8.93427 103.695 8.23988C103.051 7.5726 102.729 6.6698 102.729 5.5315C102.718 4.78008 102.87 4.03572 103.175 3.35329C103.479 2.67085 103.928 2.06774 104.488 1.58842C105.652 0.53208 107.292 0.00390625 109.406 0.00390625C111.35 0.00390625 112.926 0.488787 114.135 1.45854C115.343 2.42829 116.052 3.79691 116.262 5.5644H112.676C112.631 5.20469 112.516 4.85811 112.338 4.5458C112.16 4.23348 111.922 3.96198 111.639 3.74784C111.064 3.31146 110.296 3.09327 109.335 3.09327C108.397 3.09327 107.671 3.29298 107.158 3.69243C106.916 3.86465 106.719 4.09559 106.584 4.36494C106.449 4.63429 106.381 4.93379 106.384 5.2371C106.384 5.86744 106.741 6.36445 107.456 6.72811C108.363 7.15951 109.312 7.4887 110.287 7.70998C111.387 7.956 112.472 8.26529 113.538 8.63644C114.454 8.93508 115.282 9.46617 115.947 10.1811C116.557 10.8599 116.862 11.8534 116.862 13.1614C116.883 14.81 116.269 16.1792 115.019 17.269C113.77 18.3588 112.063 18.9025 109.898 18.9002Z" fill="black"/>
<path d="M138.722 19.0729C137.231 19.0729 136.003 18.816 135.037 18.3023C134.137 17.8564 133.384 17.1485 132.869 16.2658C132.397 15.4245 132.152 14.4676 132.16 13.4951C132.16 11.7357 132.823 10.3422 134.147 9.31477C135.472 8.2873 137.364 7.77355 139.824 7.77355H144.427V7.44973C144.427 6.03088 144.055 4.96704 143.31 4.2582C142.565 3.54936 141.601 3.19493 140.419 3.19493C139.46 3.17388 138.517 3.44946 137.71 3.98632C136.941 4.51276 136.474 5.28914 136.31 6.31546H132.549C132.636 5.0747 133.088 3.89109 133.844 2.92305C134.602 1.97043 135.577 1.22677 136.682 0.758426C137.879 0.246289 139.165 -0.0105163 140.461 0.00340588C142.918 0.00340588 144.822 0.66953 146.173 2.00179C147.524 3.33404 148.198 5.15002 148.195 7.44973V18.6348H144.93L144.612 15.5177C144.103 16.533 143.36 17.4027 142.447 18.0495C141.502 18.7318 140.26 19.0729 138.722 19.0729ZM139.467 15.9178C140.485 15.9178 141.342 15.6672 142.039 15.1662C142.743 14.6584 143.306 13.968 143.67 13.1643C144.07 12.2992 144.316 11.3674 144.399 10.4127H140.211C138.722 10.4127 137.662 10.6817 137.028 11.2196C136.732 11.4582 136.493 11.7644 136.33 12.1144C136.167 12.4644 136.084 12.8486 136.089 13.2371C136.074 13.6154 136.149 13.9917 136.306 14.3336C136.464 14.6754 136.7 14.9724 136.993 15.1991C137.602 15.6794 138.427 15.9189 139.467 15.9178Z" fill="black"/>
<path d="M172.96 19.0734C171.233 19.0734 169.702 18.6757 168.365 17.8803C167.039 17.0988 165.951 15.9487 165.226 14.5606C164.468 13.1441 164.09 11.4937 164.09 9.60965C164.09 7.70362 164.462 6.02964 165.207 4.58771C165.92 3.18198 167.002 2.01315 168.33 1.2161C169.67 0.40797 171.225 0.00390625 172.995 0.00390625C174.723 0.00390625 176.225 0.401044 177.501 1.19532C178.749 1.96042 179.778 3.05545 180.481 4.3678C181.195 5.70341 181.562 7.20749 181.546 8.73341C181.546 8.97758 181.546 9.2408 181.528 9.52134C181.51 9.80188 181.498 10.1153 181.474 10.4565H167.78C167.897 12.217 168.459 13.5562 169.465 14.474C170.421 15.3711 171.669 15.8621 172.96 15.849C174.024 15.849 174.917 15.5984 175.64 15.0974C176.36 14.5973 176.922 13.889 177.255 13.0609H181.015C180.546 14.7676 179.556 16.2723 178.195 17.3521C176.792 18.4996 175.047 19.0734 172.96 19.0734ZM172.96 3.19196C171.753 3.17508 170.577 3.58236 169.625 4.34702C168.655 5.11705 168.064 6.27151 167.851 7.81042H177.784C177.714 6.39389 177.229 5.26943 176.33 4.43706C175.431 3.60469 174.308 3.18965 172.96 3.19196Z" fill="black"/>
<path d="M181.547 18.631L187.79 9.53608L181.547 0.439453H185.555L190.274 7.40782L194.965 0.439453H199.009L192.764 9.53608L199.009 18.631H194.965L190.274 11.6626L185.555 18.631H181.547Z" fill="black"/>
<path d="M126.519 2.07129H122.758V18.6298H126.519V2.07129Z" fill="black"/>
<path d="M131.502 0.439453H117.766V3.70371H131.502V0.439453Z" fill="black"/>
<path d="M158.261 2.07129H154.5V18.6298H158.261V2.07129Z" fill="black"/>
<path d="M163.248 0.439453H149.512V3.70371H163.248V0.439453Z" fill="black"/>
<path d="M28.4724 18.6309H10.875V29.8748H28.4724V18.6309Z" fill="#EF0000"/>
<path d="M39.3477 18.63V0.438477L28.471 0.438477V18.63H39.3477Z" fill="#EF0000"/>
<path d="M10.875 18.63L10.875 0.438477L-0.0016861 0.438477L-0.0016861 18.63H10.875Z" fill="#EF0000"/>
</g>
<defs>
<clipPath id="clip0_42_213">
<rect width="199" height="30" fill="white"/>
</clipPath>
</defs>
</svg>
