<svg width="145" height="40" viewBox="0 0 145 40" fill="none" xmlns="http://www.w3.org/2000/svg">
<path fill-rule="evenodd" clip-rule="evenodd" d="M4 0C1.79086 0 0 1.79086 0 4V36C0 38.2091 1.79086 40 4 40H36C38.2091 40 40 38.2091 40 36V4C40 1.79086 38.2091 0 36 0H4ZM9.66167 22.831L9.9003 25H12.9644L12.6112 22.498C12.5221 21.862 12.3789 21.331 12.1817 20.905C11.9908 20.473 11.6917 20.137 11.2844 19.897C10.9974 19.7279 10.6283 19.6065 10.1771 19.5327V19.456C11.0362 19.396 11.6758 19.15 12.0958 18.718C12.5158 18.286 12.7258 17.683 12.7258 16.909V16.675C12.7258 15.649 12.3789 14.863 11.6853 14.317C10.998 13.771 9.90667 13.498 8.41121 13.498H5.94848H5.09894H3.04667V25H5.96758V21.1688L7.87667 21.175C8.2903 21.175 8.62121 21.235 8.86939 21.355C9.11758 21.469 9.30212 21.649 9.42303 21.895C9.54394 22.135 9.62349 22.447 9.66167 22.831ZM5.94848 19.0124L7.99121 19.006C8.61485 19.006 9.06349 18.877 9.33712 18.619C9.61076 18.361 9.74758 17.974 9.74758 17.458V17.278C9.74758 16.768 9.61076 16.387 9.33712 16.135C9.06985 15.877 8.61803 15.748 7.98167 15.748H5.94848V19.0124ZM23.0151 24.577L23.4542 24.991H26.6424V24.775C26.4197 24.535 26.2001 24.307 25.9838 24.091C25.7738 23.875 25.5638 23.665 25.3538 23.461C25.1501 23.251 24.9433 23.047 24.7333 22.849C24.5444 22.6598 24.3528 22.4706 24.1585 22.2814C24.5992 21.7021 24.9436 21.0813 25.1915 20.419C25.5033 19.597 25.7197 18.706 25.8406 17.746H23.0151C22.9578 18.376 22.8497 18.979 22.6906 19.555C22.5965 19.8919 22.4792 20.2152 22.3384 20.5249L19.216 17.692C18.9233 17.422 18.7038 17.191 18.5574 16.999C18.411 16.801 18.3379 16.597 18.3379 16.387V16.351C18.3379 16.093 18.4397 15.892 18.6433 15.748C18.8533 15.598 19.2097 15.523 19.7124 15.523C20.2469 15.523 20.7815 15.577 21.316 15.685C21.8569 15.793 22.3469 15.928 22.786 16.09L22.5188 13.84C22.1115 13.678 21.6247 13.54 21.0583 13.426C20.4919 13.312 19.8206 13.255 19.0442 13.255C17.7906 13.255 16.8424 13.507 16.1997 14.011C15.5633 14.515 15.2451 15.196 15.2451 16.054V16.135C15.2451 16.615 15.3469 17.044 15.5506 17.422C15.6822 17.6552 15.8588 17.8954 16.0804 18.1427C15.449 18.5027 14.9796 18.9164 14.6724 19.384C14.3097 19.936 14.1283 20.614 14.1283 21.418V21.607C14.1283 22.759 14.4942 23.656 15.226 24.298C15.9642 24.94 17.0906 25.261 18.6051 25.261C19.2797 25.261 19.8747 25.192 20.3901 25.054C20.9119 24.916 21.3765 24.718 21.7838 24.46C22.0034 24.3208 22.2129 24.1669 22.4122 23.998C22.4286 24.0139 22.445 24.0299 22.4615 24.046C22.6524 24.226 22.8369 24.403 23.0151 24.577ZM20.8202 22.4177L17.7423 19.7119C17.5332 19.8424 17.3721 19.9971 17.2592 20.176C17.1065 20.428 17.0301 20.77 17.0301 21.202V21.364C17.0301 21.892 17.1892 22.3 17.5074 22.588C17.8256 22.87 18.3029 23.011 18.9392 23.011C19.461 23.011 19.9065 22.924 20.2756 22.75C20.4725 22.6572 20.654 22.5464 20.8202 22.4177ZM32.2232 22.642H30.4096V15.829H32.2232C32.9868 15.829 33.5596 16.024 33.9414 16.414C34.3232 16.798 34.5141 17.353 34.5141 18.079V20.383C34.5141 21.109 34.3232 21.667 33.9414 22.057C33.5596 22.447 32.9868 22.642 32.2232 22.642ZM30.4096 13.498H32.3282C34.0655 13.498 35.3637 13.894 36.2227 14.686C37.0882 15.472 37.5209 16.603 37.5209 18.079V20.392C37.5209 21.874 37.0914 23.014 36.2323 23.812C35.3732 24.604 34.0718 25 32.3282 25H30.4096H29.56H27.4696V13.498H29.5505H30.4096Z" fill="url(#paint0_linear_6036_42164)"/>
<path d="M61.5682 13V24.6364H59.1364V15H54.4318V24.6364H52V13H61.5682ZM63.3537 24.6364L63.3424 22.7159H63.6321C63.8367 22.7159 64.0128 22.6667 64.1605 22.5682C64.3121 22.4659 64.4371 22.3011 64.5355 22.0739C64.634 21.8466 64.7117 21.5455 64.7685 21.1705C64.8253 20.7917 64.8632 20.3258 64.8821 19.7727L65.0242 15.9091H71.6605V24.6364H69.3537V17.8125H67.2003L67.0639 20.4773C67.0299 21.2083 66.9408 21.8371 66.7969 22.3636C66.6568 22.8902 66.4617 23.322 66.2117 23.6591C65.9617 23.9925 65.6605 24.2387 65.3083 24.3978C64.956 24.5569 64.5469 24.6364 64.081 24.6364H63.3537ZM76.0256 24.8012C75.4688 24.8012 74.9726 24.7046 74.537 24.5114C74.1014 24.3144 73.7567 24.0247 73.5029 23.6421C73.2529 23.2557 73.1279 22.7747 73.1279 22.1989C73.1279 21.714 73.2169 21.3068 73.3949 20.9773C73.5729 20.6477 73.8154 20.3826 74.1222 20.1818C74.429 19.9811 74.7775 19.8295 75.1676 19.7273C75.5616 19.625 75.9745 19.553 76.4063 19.5114C76.9139 19.4583 77.3229 19.4091 77.6336 19.3636C77.9442 19.3144 78.1695 19.2424 78.3097 19.1477C78.4498 19.053 78.5199 18.9129 78.5199 18.7273V18.6932C78.5199 18.3333 78.4063 18.0549 78.179 17.858C77.9555 17.661 77.6373 17.5625 77.2245 17.5625C76.7889 17.5625 76.4423 17.6591 76.1847 17.8523C75.9271 18.0417 75.7567 18.2803 75.6733 18.5682L73.4347 18.3864C73.5483 17.8561 73.7718 17.3977 74.1051 17.0114C74.4385 16.6212 74.8684 16.322 75.3949 16.1136C75.9252 15.9015 76.5389 15.7955 77.2358 15.7955C77.7207 15.7955 78.1847 15.8523 78.6279 15.9659C79.0748 16.0795 79.4707 16.2557 79.8154 16.4943C80.1639 16.733 80.4385 17.0398 80.6392 17.4148C80.84 17.786 80.9404 18.2311 80.9404 18.75V24.6364H78.6449V23.4262H78.5767C78.4366 23.6989 78.2491 23.9394 78.0142 24.1478C77.7794 24.3523 77.4972 24.5133 77.1676 24.6307C76.8381 24.7444 76.4574 24.8012 76.0256 24.8012ZM76.7188 23.1307C77.0748 23.1307 77.3892 23.0606 77.662 22.9205C77.9347 22.7766 78.1487 22.5833 78.304 22.3409C78.4593 22.0985 78.537 21.8239 78.537 21.517V20.5909C78.4612 20.6402 78.357 20.6856 78.2245 20.7273C78.0957 20.7652 77.9498 20.8011 77.787 20.8352C77.6241 20.8655 77.4612 20.8939 77.2983 20.9205C77.1354 20.9432 76.9877 20.964 76.8551 20.983C76.5711 21.0246 76.3229 21.0909 76.1108 21.1818C75.8987 21.2727 75.7339 21.3958 75.6165 21.5511C75.4991 21.7027 75.4404 21.892 75.4404 22.1193C75.4404 22.4489 75.5597 22.7008 75.7983 22.875C76.0407 23.0455 76.3476 23.1307 76.7188 23.1307ZM81.9418 17.8125V15.9091H89.8509V17.8125H87.0384V24.6364H84.7316V17.8125H81.9418ZM95.1818 27.6023V13H97.5966V27.6023H95.1818ZM95.1818 24.8069C94.5114 24.8069 93.8996 24.6989 93.3466 24.483C92.7936 24.2633 92.3163 23.9546 91.9148 23.5569C91.5133 23.1553 91.2027 22.68 90.983 22.1307C90.7633 21.5777 90.6534 20.9697 90.6534 20.3068C90.6534 19.6364 90.7633 19.0265 90.983 18.4773C91.2027 17.9242 91.5133 17.4489 91.9148 17.0511C92.3163 16.6496 92.7936 16.3409 93.3466 16.125C93.8996 15.9053 94.5114 15.7955 95.1818 15.7955H95.6307V24.8069H95.1818ZM95.1818 22.9205H95.4489V17.6818H95.1818C94.8561 17.6818 94.5663 17.75 94.3125 17.8864C94.0587 18.0227 93.8447 18.2102 93.6705 18.4489C93.4962 18.6837 93.3637 18.9602 93.2728 19.2784C93.1856 19.5966 93.1421 19.9394 93.1421 20.3068C93.1421 20.7917 93.2216 21.233 93.3807 21.6307C93.5398 22.0246 93.7728 22.339 94.0796 22.5739C94.3864 22.805 94.7538 22.9205 95.1818 22.9205ZM97.5966 24.8069H97.1478V15.7955H97.5966C98.2671 15.7955 98.8788 15.9053 99.4318 16.125C99.9849 16.3409 100.462 16.6496 100.864 17.0511C101.265 17.4489 101.576 17.9242 101.795 18.4773C102.015 19.0265 102.125 19.6364 102.125 20.3068C102.125 20.9697 102.015 21.5777 101.795 22.1307C101.576 22.68 101.265 23.1553 100.864 23.5569C100.462 23.9546 99.9849 24.2633 99.4318 24.483C98.8788 24.6989 98.2671 24.8069 97.5966 24.8069ZM97.5966 22.9205C97.9224 22.9205 98.2121 22.8542 98.4659 22.7216C98.7197 22.5852 98.9337 22.3977 99.108 22.1591C99.2822 21.9205 99.4148 21.6439 99.5057 21.3295C99.5966 21.0114 99.6421 20.6705 99.6421 20.3068C99.6421 19.8182 99.5606 19.3769 99.3978 18.983C99.2387 18.5852 99.0076 18.2689 98.7046 18.0341C98.4015 17.7992 98.0322 17.6818 97.5966 17.6818H97.3296V22.9205H97.5966ZM107.652 24.8069C106.769 24.8069 106.006 24.6194 105.362 24.2444C104.722 23.8656 104.228 23.3391 103.879 22.6648C103.531 21.9867 103.357 21.2008 103.357 20.3068C103.357 19.4053 103.531 18.6174 103.879 17.9432C104.228 17.2652 104.722 16.7386 105.362 16.3636C106.006 15.9848 106.769 15.7955 107.652 15.7955C108.535 15.7955 109.296 15.9848 109.936 16.3636C110.58 16.7386 111.076 17.2652 111.425 17.9432C111.773 18.6174 111.947 19.4053 111.947 20.3068C111.947 21.2008 111.773 21.9867 111.425 22.6648C111.076 23.3391 110.58 23.8656 109.936 24.2444C109.296 24.6194 108.535 24.8069 107.652 24.8069ZM107.663 22.9319C108.065 22.9319 108.4 22.8182 108.669 22.5909C108.938 22.3598 109.141 22.0455 109.277 21.6477C109.417 21.25 109.487 20.7973 109.487 20.2898C109.487 19.7822 109.417 19.3295 109.277 18.9318C109.141 18.5341 108.938 18.2197 108.669 17.9886C108.4 17.7576 108.065 17.642 107.663 17.642C107.258 17.642 106.917 17.7576 106.641 17.9886C106.368 18.2197 106.161 18.5341 106.021 18.9318C105.885 19.3295 105.817 19.7822 105.817 20.2898C105.817 20.7973 105.885 21.25 106.021 21.6477C106.161 22.0455 106.368 22.3598 106.641 22.5909C106.917 22.8182 107.258 22.9319 107.663 22.9319ZM113.521 27.9091V15.9091H115.908V17.375H116.016C116.122 17.1402 116.275 16.9015 116.476 16.6591C116.68 16.4129 116.946 16.2083 117.271 16.0455C117.601 15.8788 118.01 15.7955 118.499 15.7955C119.135 15.7955 119.722 15.9621 120.26 16.2955C120.798 16.625 121.228 17.1231 121.55 17.7898C121.872 18.4527 122.033 19.2841 122.033 20.2841C122.033 21.2576 121.875 22.0795 121.561 22.75C121.25 23.4167 120.826 23.9224 120.288 24.2671C119.754 24.608 119.156 24.7784 118.493 24.7784C118.023 24.7784 117.624 24.7008 117.294 24.5455C116.968 24.3902 116.701 24.1951 116.493 23.9603C116.285 23.7216 116.125 23.4811 116.016 23.2387H115.942V27.9091H113.521ZM115.891 20.2727C115.891 20.7917 115.963 21.2443 116.107 21.6307C116.25 22.017 116.459 22.3182 116.732 22.5341C117.004 22.7462 117.336 22.8523 117.726 22.8523C118.12 22.8523 118.453 22.7444 118.726 22.5284C118.999 22.3087 119.205 22.0057 119.345 21.6193C119.489 21.2292 119.561 20.7803 119.561 20.2727C119.561 19.7689 119.491 19.3258 119.351 18.9432C119.211 18.5606 119.004 18.2614 118.732 18.0455C118.459 17.8295 118.124 17.7216 117.726 17.7216C117.332 17.7216 116.999 17.8258 116.726 18.0341C116.457 18.2424 116.25 18.5379 116.107 18.9205C115.963 19.303 115.891 19.7538 115.891 20.2727ZM128.805 21.9602L131.169 15.9091H133.01L129.607 24.6364H127.999L124.675 15.9091H126.51L128.805 21.9602ZM125.959 15.9091V24.6364H123.646V15.9091H125.959ZM131.771 24.6364V15.9091H134.055V24.6364H131.771ZM138.416 24.8012C137.859 24.8012 137.363 24.7046 136.928 24.5114C136.492 24.3144 136.147 24.0247 135.893 23.6421C135.643 23.2557 135.518 22.7747 135.518 22.1989C135.518 21.714 135.607 21.3068 135.785 20.9773C135.964 20.6477 136.206 20.3826 136.513 20.1818C136.82 19.9811 137.168 19.8295 137.558 19.7273C137.952 19.625 138.365 19.553 138.797 19.5114C139.304 19.4583 139.714 19.4091 140.024 19.3636C140.335 19.3144 140.56 19.2424 140.7 19.1477C140.84 19.053 140.91 18.9129 140.91 18.7273V18.6932C140.91 18.3333 140.797 18.0549 140.57 17.858C140.346 17.661 140.028 17.5625 139.615 17.5625C139.179 17.5625 138.833 17.6591 138.575 17.8523C138.318 18.0417 138.147 18.2803 138.064 18.5682L135.825 18.3864C135.939 17.8561 136.162 17.3977 136.496 17.0114C136.829 16.6212 137.259 16.322 137.785 16.1136C138.316 15.9015 138.929 15.7955 139.626 15.7955C140.111 15.7955 140.575 15.8523 141.018 15.9659C141.465 16.0795 141.861 16.2557 142.206 16.4943C142.554 16.733 142.829 17.0398 143.03 17.4148C143.231 17.786 143.331 18.2311 143.331 18.75V24.6364H141.035V23.4262H140.967C140.827 23.6989 140.64 23.9394 140.405 24.1478C140.17 24.3523 139.888 24.5133 139.558 24.6307C139.229 24.7444 138.848 24.8012 138.416 24.8012ZM139.109 23.1307C139.465 23.1307 139.78 23.0606 140.053 22.9205C140.325 22.7766 140.539 22.5833 140.695 22.3409C140.85 22.0985 140.928 21.8239 140.928 21.517V20.5909C140.852 20.6402 140.748 20.6856 140.615 20.7273C140.486 20.7652 140.34 20.8011 140.178 20.8352C140.015 20.8655 139.852 20.8939 139.689 20.9205C139.526 20.9432 139.378 20.964 139.246 20.983C138.962 21.0246 138.714 21.0909 138.501 21.1818C138.289 21.2727 138.125 21.3958 138.007 21.5511C137.89 21.7027 137.831 21.892 137.831 22.1193C137.831 22.4489 137.95 22.7008 138.189 22.875C138.431 23.0455 138.738 23.1307 139.109 23.1307Z" fill="#042419"/>
<defs>
<linearGradient id="paint0_linear_6036_42164" x1="20" y1="0" x2="20" y2="40" gradientUnits="userSpaceOnUse">
<stop stop-color="#3EB28B"/>
<stop offset="1" stop-color="#086B49"/>
</linearGradient>
</defs>
</svg>
