<svg width="145" height="30" viewBox="0 0 145 30" fill="none" xmlns="http://www.w3.org/2000/svg">
<path d="M98.0102 0C98.0007 0.108739 97.9836 0.218448 97.9836 0.327187C97.9826 4.14178 97.9826 7.95734 97.9826 11.7719C97.9826 11.8807 97.9921 11.9884 98.0026 12.1855C98.1384 12.071 98.2296 12.0069 98.3047 11.9282C99.9332 10.2156 101.918 9.49522 104.25 9.5525C108.017 9.64571 111.068 12.3438 112.163 15.6904C112.637 17.137 112.922 18.6031 112.845 20.1235C112.703 22.9565 111.861 25.5109 109.813 27.5303C108.46 28.8643 106.844 29.6653 104.957 29.874C103.221 30.0663 101.557 29.8449 99.9826 29.0488C99.0933 28.5983 98.3665 27.9507 97.785 27.1313C97.7251 27.0468 97.6577 26.9691 97.5199 26.7963C97.4999 27.0187 97.4819 27.1293 97.4809 27.241C97.4781 27.8662 97.4733 28.4925 97.4828 29.1177C97.4866 29.3371 97.4192 29.4206 97.1949 29.4196C95.4752 29.4128 93.7555 29.4138 92.0348 29.4187C91.8353 29.4196 91.7412 29.3556 91.7593 29.1439C91.7678 29.0468 91.7602 28.9478 91.7602 28.8497C91.7602 19.404 91.7602 9.95833 91.7593 0.512625C91.7593 0.34175 91.7412 0.171847 91.7327 0.000971829C93.8239 9.48148e-07 95.917 0 98.0102 0ZM97.6957 20.072C97.6995 20.5021 97.86 21.2846 98.2068 22.0264C99.5522 24.9031 103.177 25.6963 105.373 23.5361C106.783 22.1497 107.14 20.3739 106.754 18.4574C106.18 15.6089 103.732 14.136 101.068 14.8545C99.1028 15.3846 97.6985 17.439 97.6957 20.072Z" fill="#E84469"/>
<path d="M60.4798 0C60.4751 0.183497 60.4665 0.367963 60.4665 0.55146C60.4656 9.89716 60.4656 19.2429 60.4656 28.5886C60.4656 29.1449 60.4656 29.1449 59.9164 29.1459C58.3648 29.1459 56.8142 29.1371 55.2627 29.1527C54.9273 29.1556 54.819 29.041 54.8313 28.708C54.8513 28.1818 54.8389 27.6536 54.8351 27.1264C54.8342 26.9837 54.8152 26.841 54.8 26.6284C54.6926 26.7235 54.6242 26.7643 54.5833 26.8245C53.4878 28.4187 51.922 29.2352 50.0978 29.5575C47.2009 30.0692 44.6412 29.3177 42.4949 27.2497C41.2027 26.0041 40.4217 24.4351 39.9865 22.6963C39.1789 19.4701 39.4497 16.3623 41.2274 13.5137C42.9946 10.6826 45.5818 9.38648 48.8721 9.48745C50.951 9.55153 52.6413 10.4224 54.0703 11.9088C54.1035 11.9438 54.1387 11.9778 54.1767 12.0069C54.1938 12.0205 54.2213 12.0195 54.2983 12.0389C54.3154 11.9108 54.3468 11.7884 54.3468 11.6651C54.3477 7.77773 54.3468 3.88935 54.3458 0.0019407C56.3905 -1.0666e-06 58.4352 0 60.4798 0ZM54.59 19.4914C54.6346 18.8739 54.476 18.2234 54.2166 17.5982C53.4973 15.8593 52.2736 14.7389 50.3876 14.5739C48.5947 14.4166 47.1714 15.1487 46.207 16.7098C45.4517 17.9331 45.3757 19.2827 45.5847 20.6778C45.9809 23.3254 48.5206 25.0643 51.066 24.4167C53.1125 23.8963 54.5871 21.8652 54.59 19.4914Z" fill="#E84469"/>
<path d="M6.2789 0C6.27795 5.80102 6.27605 11.602 6.27795 17.403C6.27795 17.5302 6.30931 17.6584 6.33876 17.8846C6.50883 17.7128 6.6257 17.6186 6.71596 17.5021C8.54116 15.1457 10.3673 12.7914 12.1782 10.4244C12.3987 10.136 12.622 10.0127 12.9868 10.0156C15.1388 10.0341 17.2918 10.0243 19.4439 10.0243C19.5712 10.0243 19.6985 10.0243 19.9246 10.0243C19.5892 10.4311 19.3166 10.7661 19.0401 11.0962C17.0172 13.5088 14.9973 15.9234 12.964 18.3273C12.7531 18.5768 12.7426 18.7409 12.9364 19.0079C15.2795 22.2419 17.6101 25.4847 19.9436 28.7255C20.0206 28.8323 20.0928 28.9439 20.2078 29.1138C20.0292 29.1274 19.9056 29.1439 19.7821 29.1439C17.5332 29.1459 15.2842 29.14 13.0362 29.1517C12.7474 29.1536 12.5801 29.0497 12.4215 28.8128C10.5564 26.0157 8.68272 23.2245 6.80907 20.4322C6.69126 20.2565 6.56394 20.0875 6.44042 19.9147C6.40242 19.9244 6.36441 19.9332 6.32641 19.9429C6.30931 20.1002 6.277 20.2574 6.277 20.4147C6.27415 23.1497 6.2751 25.8847 6.27415 28.6196C6.27415 29.1439 6.2732 29.1449 5.76298 29.1449C4.0195 29.1449 2.27601 29.1352 0.531579 29.1527C0.179082 29.1565 0.0916691 29.0459 0.0926192 28.6954C0.10117 19.3011 0.10022 9.9059 0.0983198 0.511653C0.0983198 0.340778 0.0802675 0.170875 0.0717163 0C2.14109 0 4.20952 0 6.2789 0Z" fill="#E84469"/>
<path d="M144.994 29.4432C144.55 29.4335 144.106 29.417 143.663 29.416C142.328 29.4121 140.993 29.4083 139.658 29.4199C139.391 29.4228 139.295 29.3442 139.307 29.0665C139.326 28.6257 139.315 28.184 139.31 27.7422C139.309 27.617 139.284 27.4927 139.264 27.3141C139.149 27.3917 139.076 27.417 139.041 27.4694C138.18 28.7413 136.92 29.3753 135.498 29.6714C133.247 30.1403 131.084 29.852 129.148 28.5316C127.725 27.5616 126.976 26.15 126.892 24.3878C126.832 23.1403 126.937 21.9286 127.665 20.8723C128.363 19.8616 129.336 19.1878 130.426 18.6917C131.74 18.0936 133.127 17.747 134.557 17.6189C135.968 17.4917 137.382 17.4159 138.796 17.3334C139.027 17.3198 139.102 17.2557 139.108 17.0159C139.139 15.6586 138.424 14.712 137.049 14.3315C135.276 13.8412 133.652 14.2616 132.124 15.2014C131.715 15.4538 131.334 15.7548 130.891 16.0684C129.884 14.9703 128.862 13.8577 127.779 12.6771C128.252 12.2955 128.676 11.9033 129.148 11.5829C130.691 10.5373 132.392 9.88482 134.225 9.62851C136.33 9.33433 138.417 9.3955 140.441 10.1538C142.419 10.8945 143.614 12.3751 144.251 14.3742C144.649 15.6266 144.841 16.9179 144.906 18.2305C144.919 18.4849 144.965 18.7383 144.996 18.9917C144.994 22.4752 144.994 25.9597 144.994 29.4432ZM138.2 20.9529C138.198 20.9354 138.197 20.9179 138.196 20.8995C137.266 20.9927 136.333 21.0597 135.41 21.1888C134.633 21.2975 133.913 21.5694 133.274 22.0771C132.251 22.8907 132.194 24.815 133.854 25.4393C134.553 25.7014 135.268 25.7014 135.984 25.6335C137.245 25.5131 138.246 24.9432 138.849 23.7636C139.178 23.1208 139.301 22.4237 139.308 21.7082C139.318 20.8199 139.39 20.9674 138.597 20.9529C138.464 20.9509 138.332 20.9529 138.2 20.9529Z" fill="#E84469"/>
<path d="M74.4249 25.8831C73.9347 27.2569 73.4558 28.5967 72.9674 29.9647C71.7769 29.5385 70.6149 29.1229 69.4044 28.6899C69.8586 27.4035 70.3061 26.1375 70.7745 24.8103C69.9707 24.9229 69.2363 25.0229 68.5018 25.1287C67.4196 25.2841 66.3384 25.4501 65.2543 25.5957C64.7878 25.6579 64.4001 25.4753 64.1284 25.0831C63.8376 24.6646 63.8205 24.2161 64.059 23.7656C64.6348 22.6773 65.2144 21.5908 65.7921 20.5035C66.3764 19.4054 66.9683 18.3122 67.5355 17.2054C67.6087 17.0617 67.6182 16.8209 67.5517 16.6753C66.5294 14.4325 65.4899 12.1976 64.4524 9.96162C64.23 9.48298 64.2681 9.03346 64.5882 8.61792C64.9046 8.20821 65.336 8.0985 65.8168 8.19073C66.8429 8.38782 67.8671 8.60045 68.8923 8.8053C70.2947 9.08492 71.6962 9.37132 73.1014 9.63249C73.2601 9.66162 73.4843 9.59269 73.6107 9.48686C75.3085 8.06063 76.9988 6.62373 78.6815 5.17809C79.0939 4.82372 79.5319 4.66838 80.044 4.87323C80.5628 5.081 80.767 5.5179 80.8174 6.05674C81.015 8.18005 81.2202 10.3024 81.4122 12.4267C81.434 12.6636 81.5262 12.7937 81.7305 12.9024C83.8378 14.0248 85.9386 15.1607 88.046 16.2821C88.5457 16.5481 88.8735 16.9025 88.8536 17.5112C88.8346 18.1015 88.5011 18.4345 88.0004 18.6675C85.8274 19.6792 83.6621 20.7093 81.4863 21.7141C81.2117 21.8413 81.167 22.0433 81.13 22.285C80.8136 24.3666 80.4934 26.4482 80.1856 28.5317C80.1076 29.0627 79.8739 29.4589 79.3703 29.6433C78.8639 29.8297 78.4392 29.6686 78.0544 29.3006C76.9418 28.2346 75.8188 27.1802 74.6986 26.1219C74.6216 26.0472 74.538 25.9802 74.4249 25.8831ZM77.6069 10.9238C77.453 11.049 77.3513 11.1296 77.2535 11.2131C76.4782 11.8723 75.6953 12.5228 74.9304 13.1947C74.5608 13.5189 74.1551 13.615 73.6924 13.5238C73.1499 13.418 72.6092 13.3053 72.0667 13.1985C71.3285 13.0529 70.5893 12.9112 69.8054 12.7587C69.8453 12.8752 69.8596 12.9335 69.8843 12.9869C70.4059 14.116 70.9247 15.2471 71.4548 16.3714C71.6705 16.8287 71.6629 17.2626 71.4254 17.7044C70.8667 18.7462 70.3128 19.7899 69.7579 20.8345C69.6999 20.9433 69.6543 21.0598 69.5821 21.219C69.7683 21.1996 69.8871 21.1918 70.0049 21.1753C71.1945 21.0073 72.3841 20.8403 73.5727 20.6675C73.9812 20.6083 74.3337 20.72 74.633 21.0035C75.1879 21.5277 75.739 22.0578 76.2938 22.5821C76.596 22.8685 76.9038 23.1481 77.2506 23.4695C77.2763 23.3375 77.2896 23.2811 77.2981 23.2239C77.4644 22.1472 77.6288 21.0704 77.796 19.9947C77.8625 19.5646 78.0839 19.25 78.4744 19.0646C78.8877 18.8685 79.301 18.6724 79.7152 18.4772C80.5124 18.1015 81.3096 17.7258 82.1485 17.3296C82.0165 17.251 81.9357 17.2005 81.853 17.1559C80.7708 16.5724 79.6886 15.9879 78.6055 15.4073C78.2245 15.2034 78.0041 14.883 77.9537 14.4539C77.892 13.9306 77.853 13.4053 77.8017 12.8811C77.7409 12.25 77.6763 11.6199 77.6069 10.9238Z" fill="#241E3C"/>
<path d="M31.6508 17.1506C31.8523 15.7477 31.1786 14.8418 30.104 14.3923C28.6503 13.7836 27.1995 13.9175 25.8028 14.5467C25.0199 14.8991 24.3045 15.4069 23.493 15.8826C22.542 14.8467 21.5272 13.7418 20.4754 12.5962C20.6731 12.4204 20.8469 12.2593 21.0275 12.1059C22.7985 10.6039 24.865 9.82236 27.1244 9.51459C28.7957 9.2874 30.4565 9.35633 32.0927 9.76508C34.7834 10.4369 36.3331 12.2457 36.9925 14.935C37.3326 16.3214 37.4865 17.7312 37.4951 19.1525C37.515 22.3409 37.496 25.5303 37.5093 28.7186C37.5112 29.0643 37.4077 29.1546 37.0827 29.1516C35.4951 29.1371 33.9083 29.1361 32.3207 29.1526C31.9805 29.1565 31.8789 29.0371 31.8979 28.707C31.9197 28.3157 31.9064 27.9225 31.9007 27.5303C31.8988 27.4031 31.8732 27.2759 31.8504 27.0856C31.7307 27.1759 31.6499 27.2099 31.6081 27.271C30.7302 28.5701 29.4285 29.1701 27.9843 29.4633C26.0802 29.8487 24.2199 29.6196 22.4859 28.7147C20.6474 27.7555 19.665 26.1972 19.5709 24.072C19.5139 22.7914 19.6688 21.5652 20.4735 20.5263C21.3096 19.4477 22.4261 18.7584 23.6764 18.2904C25.0361 17.7816 26.4451 17.4962 27.8883 17.3952C29.0741 17.3127 30.2618 17.2506 31.4475 17.1787C31.5169 17.1739 31.5862 17.1603 31.6508 17.1506ZM30.619 20.7749C30.6171 20.7632 30.6152 20.7516 30.6124 20.7399C29.7202 20.836 28.8233 20.904 27.9358 21.0341C27.0798 21.1603 26.2893 21.4671 25.6764 22.1351C24.922 22.9564 25.0513 24.2866 25.9444 24.938C26.4308 25.2934 26.9848 25.4273 27.5672 25.4555C28.8147 25.5157 29.9929 25.3273 30.9031 24.3429C31.7763 23.3992 31.9245 22.2205 31.8846 20.9953C31.8817 20.9186 31.7202 20.7914 31.6252 20.7846C31.2917 20.7593 30.9553 20.7749 30.619 20.7749Z" fill="#E84469"/>
<path d="M127.486 15.059C126.758 15.059 126.102 15.0503 125.447 15.0609C123.727 15.0901 121.979 16.36 121.534 18.4202C121.442 18.8474 121.383 19.2911 121.381 19.727C121.368 22.8047 121.367 25.8824 121.383 28.9601C121.385 29.3436 121.274 29.4261 120.916 29.4232C119.137 29.4047 117.357 29.4096 115.579 29.4203C115.305 29.4222 115.203 29.3581 115.203 29.0552C115.212 22.8629 115.211 16.6707 115.204 10.4774C115.204 10.1929 115.276 10.0959 115.567 10.0978C117.311 10.1104 119.054 10.1104 120.798 10.0978C121.089 10.0959 121.167 10.1939 121.161 10.4784C121.144 11.1405 121.154 11.8027 121.156 12.4648C121.157 12.592 121.171 12.7201 121.18 12.8473C121.211 12.857 121.242 12.8677 121.273 12.8774C121.346 12.7638 121.423 12.6532 121.491 12.5367C122.399 10.9823 123.675 9.93081 125.452 9.6444C126.084 9.54245 126.744 9.60556 127.391 9.61333C127.591 9.61527 127.74 9.69877 127.726 9.97547C127.64 11.6629 127.57 13.3522 127.493 15.0406C127.491 15.0726 127.464 15.1056 127.486 15.059Z" fill="#E84469"/>
<path d="M72.0429 6.99503C71.0462 7.0028 70.251 6.20765 70.2453 5.19502C70.2396 4.22122 71.05 3.39306 72.0116 3.39209C72.9855 3.39112 73.7779 4.19307 73.7807 5.1824C73.7845 6.19502 73.0235 6.98726 72.0429 6.99503Z" fill="#241E3C"/>
<path d="M84.2702 10.8184C84.8622 10.8184 85.3182 11.2883 85.3163 11.8951C85.3144 12.4999 84.8536 12.9659 84.2617 12.964C83.6717 12.9611 83.2147 12.4912 83.2147 11.8873C83.2156 11.2873 83.6793 10.8174 84.2702 10.8184Z" fill="#241E3C"/>
<path d="M76.2414 3.31641C76.5416 3.31641 76.7887 3.56884 76.7868 3.87272C76.7849 4.18146 76.5397 4.42224 76.2338 4.41642C75.9402 4.41059 75.7179 4.18437 75.7093 3.88243C75.6998 3.57563 75.944 3.31641 76.2414 3.31641Z" fill="#241E3C"/>
</svg>
