<svg width="63" height="40" viewBox="0 0 63 40" fill="none" xmlns="http://www.w3.org/2000/svg">
<g clip-path="url(#clip0_1486_474384)">
<path fill-rule="evenodd" clip-rule="evenodd" d="M20 8.2428C20 8.2428 19.6 11.6455 17.9683 12.8674C16.3365 14.0893 14.9698 14.179 12.3032 14.1666C9.63651 14.1543 5.93809 13.7026 2.56667 16.8238C4.94762 11.4104 11.273 10.535 15.1651 10.3571C19.0571 10.1793 20 8.2428 20 8.2428Z" fill="url(#paint0_linear_1486_474384)"/>
<path fill-rule="evenodd" clip-rule="evenodd" d="M20 8.2428C20 8.2428 19.0587 10.1793 15.1651 10.3571C11.2714 10.535 4.95238 11.4073 2.56666 16.8238C1.37733 18.0086 0.405003 19.6733 0.038217 21.2916C0.038217 21.2916 0.00952013 15.0652 1.25873 12.3848C2.50793 9.70442 3.95714 8.57224 7.84603 8.18866C11.7349 7.80508 12.5032 8.09741 14.6714 8.15154C16.8397 8.20568 20 8.2428 20 8.2428Z" fill="url(#paint1_linear_1486_474384)"/>
<path fill-rule="evenodd" clip-rule="evenodd" d="M16.2651 16.8362C16.2651 16.8362 14.6444 19.8275 8.32857 19.9513C2.0127 20.075 0.529998 23.5474 0.0331726 26.1458C0.0331727 24.8653 0.211109 23.1235 0.211109 23.1235C1.44285 16.7079 8.95397 16.8393 8.95397 16.8393L16.2651 16.8362Z" fill="url(#paint2_linear_1486_474384)"/>
<path fill-rule="evenodd" clip-rule="evenodd" d="M5.62698 24.3733C5.04285 25.4189 5.17301 26.93 5.05396 28.8587C4.83967 32.3511 0.0317383 31.9846 0.0317383 31.9846C0.0317383 31.9846 3.01587 31.9072 2.90317 26.3685C2.82422 25.7966 2.89746 25.2144 3.11587 24.678C3.93942 24.4898 4.78121 24.3876 5.62698 24.3733Z" fill="#3C3CCA"/>
<path fill-rule="evenodd" clip-rule="evenodd" d="M2.90317 26.3685C3.01587 31.9072 0.0317383 31.9876 0.0317383 31.9876C0.0317383 31.9876 0.0317383 27.4212 0.0317383 26.1427C0.884119 25.357 2.06349 24.9208 3.12063 24.678C2.90061 25.214 2.82573 25.7962 2.90317 26.3685Z" fill="#3434C1"/>
<path fill-rule="evenodd" clip-rule="evenodd" d="M16.2651 16.8362C16.2651 16.8362 15.5762 19.3032 14.5778 20.604C12.7127 22.944 10.9319 22.7406 9.73914 22.7406C9.38946 22.7406 9.19576 22.7496 8.90583 22.7604C8.04491 22.7604 7.40242 22.7896 6.5746 22.8869C5.94741 22.9556 5.32472 23.0589 4.70952 23.1962C2.8238 23.6278 0.864918 24.4826 0.0331726 26.1438C0.529998 23.5484 1.99682 20.075 8.32063 19.9482C14.6444 19.8214 16.2651 16.8362 16.2651 16.8362Z" fill="url(#paint3_linear_1486_474384)"/>
<path fill-rule="evenodd" clip-rule="evenodd" d="M9.06984 22.7616H9.04762H8.99524H8.97619H8.95079C7.04603 22.9766 6.09857 23.5289 5.62714 24.375C4.7812 24.3909 3.94195 24.4883 3.11858 24.6781C3.26243 24.3372 3.48006 24.0248 3.75346 23.7701C4.02686 23.5154 4.35201 23.3194 4.70793 23.1947C5.32314 23.0574 5.94583 22.9541 6.57301 22.8853C7.4014 22.7885 8.23564 22.7471 9.06984 22.7616Z" fill="#0F0F56"/>
<path fill-rule="evenodd" clip-rule="evenodd" d="M4.70142 23.1979C4.34549 23.3226 4.02845 23.52 3.75506 23.7747C3.48166 24.0294 3.26608 24.3371 3.12223 24.6779C2.06509 24.9208 0.885722 25.3569 0.0333405 26.1426C0.858737 24.483 2.81571 23.6294 4.70142 23.1979Z" fill="#181877"/>
</g>
<path d="M33.5792 9.56761V11.0746H30.4332V12.7026H32.7872V14.1656H30.4332V17.2896H28.5522V9.56761H33.5792ZM35.5138 10.5136C35.1838 10.5136 34.9125 10.4183 34.6998 10.2276C34.4945 10.0296 34.3918 9.78761 34.3918 9.50161C34.3918 9.20828 34.4945 8.96628 34.6998 8.77561C34.9125 8.57761 35.1838 8.47861 35.5138 8.47861C35.8365 8.47861 36.1005 8.57761 36.3058 8.77561C36.5185 8.96628 36.6248 9.20828 36.6248 9.50161C36.6248 9.78761 36.5185 10.0296 36.3058 10.2276C36.1005 10.4183 35.8365 10.5136 35.5138 10.5136ZM36.4488 11.1516V17.2896H34.5678V11.1516H36.4488ZM41.5519 11.0856C42.2706 11.0856 42.8426 11.3203 43.2679 11.7896C43.7006 12.2516 43.9169 12.8896 43.9169 13.7036V17.2896H42.0469V13.9566C42.0469 13.5459 41.9406 13.2269 41.7279 12.9996C41.5153 12.7723 41.2293 12.6586 40.8699 12.6586C40.5106 12.6586 40.2246 12.7723 40.0119 12.9996C39.7993 13.2269 39.6929 13.5459 39.6929 13.9566V17.2896H37.8119V11.1516H39.6929V11.9656C39.8836 11.6943 40.1403 11.4816 40.4629 11.3276C40.7856 11.1663 41.1486 11.0856 41.5519 11.0856Z" fill="#111477"/>
<path d="M33.3592 27.9859H30.4772L30.0152 29.3499H28.0462L30.8402 21.6279H33.0182L35.8122 29.3499H33.8212L33.3592 27.9859ZM32.8752 26.5339L31.9182 23.7069L30.9722 26.5339H32.8752ZM38.5435 21.2099V29.3499H36.6625V21.2099H38.5435ZM41.7877 21.2099V29.3499H39.9067V21.2099H41.7877ZM48.9368 26.1819C48.9368 26.3579 48.9258 26.5412 48.9038 26.7319H44.6468C44.6761 27.1132 44.7971 27.4066 45.0098 27.6119C45.2298 27.8099 45.4975 27.9089 45.8128 27.9089C46.2821 27.9089 46.6085 27.7109 46.7918 27.3149H48.7938C48.6911 27.7182 48.5041 28.0812 48.2328 28.4039C47.9688 28.7266 47.6351 28.9796 47.2318 29.1629C46.8285 29.3462 46.3775 29.4379 45.8788 29.4379C45.2775 29.4379 44.7421 29.3096 44.2728 29.0529C43.8035 28.7962 43.4368 28.4296 43.1728 27.9529C42.9088 27.4762 42.7768 26.9189 42.7768 26.2809C42.7768 25.6429 42.9051 25.0856 43.1618 24.6089C43.4258 24.1322 43.7925 23.7656 44.2618 23.5089C44.7311 23.2522 45.2701 23.1239 45.8788 23.1239C46.4728 23.1239 47.0008 23.2486 47.4628 23.4979C47.9248 23.7472 48.2841 24.1029 48.5408 24.5649C48.8048 25.0269 48.9368 25.5659 48.9368 26.1819ZM47.0118 25.6869C47.0118 25.3642 46.9018 25.1076 46.6818 24.9169C46.4618 24.7262 46.1868 24.6309 45.8568 24.6309C45.5415 24.6309 45.2738 24.7226 45.0538 24.9059C44.8411 25.0892 44.7091 25.3496 44.6578 25.6869H47.0118ZM56.1991 23.2119L52.3491 32.2649H50.3251L51.7331 29.1409L49.2361 23.2119H51.3371L52.7561 27.0509L54.1641 23.2119H56.1991Z" fill="#55D2FE"/>
<defs>
<linearGradient id="paint0_linear_1486_474384" x1="14.5635" y1="10.7483" x2="5.15829" y2="17.0875" gradientUnits="userSpaceOnUse">
<stop stop-color="#19B6ED"/>
<stop offset="1" stop-color="#21BFF7"/>
</linearGradient>
<linearGradient id="paint1_linear_1486_474384" x1="3.21013" y1="7.99402" x2="21.3912" y2="16.1162" gradientUnits="userSpaceOnUse">
<stop stop-color="#4DCBF7"/>
<stop offset="1" stop-color="#28C7FF"/>
</linearGradient>
<linearGradient id="paint2_linear_1486_474384" x1="13.1201" y1="15.9485" x2="0.330642" y2="26.0226" gradientUnits="userSpaceOnUse">
<stop stop-color="#10137A"/>
<stop offset="1" stop-color="#10136B"/>
</linearGradient>
<linearGradient id="paint3_linear_1486_474384" x1="-0.36326" y1="22.869" x2="19.0696" y2="17.9781" gradientUnits="userSpaceOnUse">
<stop stop-color="#2424AA"/>
<stop offset="1" stop-color="#2F2FB5"/>
</linearGradient>
<clipPath id="clip0_1486_474384">
<rect width="20" height="24" fill="white" transform="translate(0 8)"/>
</clipPath>
</defs>
</svg>
