<svg width="291" height="39" viewBox="0 0 291 39" fill="none" xmlns="http://www.w3.org/2000/svg">
<path d="M0.92 30V0.799999H7.56V30H0.92ZM25.4697 10H32.1097V30H25.4697V28.16C24.1097 29.76 22.2164 30.56 19.7897 30.56C17.123 30.56 14.883 29.56 13.0697 27.56C11.283 25.5333 10.3897 23.0133 10.3897 20C10.3897 16.9867 11.283 14.48 13.0697 12.48C14.883 10.4533 17.123 9.44 19.7897 9.44C22.2164 9.44 24.1097 10.24 25.4697 11.84V10ZM18.2297 23.16C19.003 23.96 20.0164 24.36 21.2697 24.36C22.523 24.36 23.5364 23.96 24.3097 23.16C25.083 22.36 25.4697 21.3067 25.4697 20C25.4697 18.6933 25.083 17.64 24.3097 16.84C23.5364 16.04 22.523 15.64 21.2697 15.64C20.0164 15.64 19.003 16.04 18.2297 16.84C17.4564 17.64 17.0697 18.6933 17.0697 20C17.0697 21.3067 17.4564 22.36 18.2297 23.16ZM50.24 10H56.8V29.2C56.8 30.8 56.4933 32.2133 55.88 33.44C55.2933 34.6933 54.4933 35.68 53.48 36.4C52.4667 37.1467 51.3467 37.6933 50.12 38.04C48.92 38.4133 47.64 38.6 46.28 38.6C44.0667 38.6 42.0933 38.1867 40.36 37.36C38.6267 36.5333 37.32 35.32 36.44 33.72L41.96 30.52C42.92 32.04 44.3333 32.8 46.2 32.8C47.4 32.8 48.3733 32.4933 49.12 31.88C49.8667 31.2667 50.24 30.3733 50.24 29.2V27.28C48.88 28.9333 47.0133 29.76 44.64 29.76C41.8933 29.76 39.6133 28.7733 37.8 26.8C36.0133 24.8267 35.12 22.4267 35.12 19.6C35.12 16.7733 36.0133 14.3733 37.8 12.4C39.6133 10.4267 41.8933 9.44 44.64 9.44C47.0133 9.44 48.88 10.2667 50.24 11.92V10ZM42.92 22.6C43.72 23.3733 44.7467 23.76 46 23.76C47.2533 23.76 48.2667 23.3733 49.04 22.6C49.84 21.8 50.24 20.8 50.24 19.6C50.24 18.4 49.84 17.4133 49.04 16.64C48.2667 15.84 47.2533 15.44 46 15.44C44.7467 15.44 43.72 15.84 42.92 16.64C42.1467 17.4133 41.76 18.4 41.76 19.6C41.76 20.8 42.1467 21.8 42.92 22.6ZM70.3275 30.56C67.3675 30.56 64.8475 29.5467 62.7675 27.52C60.6875 25.4667 59.6475 22.96 59.6475 20C59.6475 17.04 60.6875 14.5467 62.7675 12.52C64.8475 10.4667 67.3675 9.44 70.3275 9.44C73.3142 9.44 75.8342 10.4667 77.8875 12.52C79.9675 14.5467 81.0075 17.04 81.0075 20C81.0075 22.96 79.9675 25.4667 77.8875 27.52C75.8342 29.5467 73.3142 30.56 70.3275 30.56ZM70.3275 24.16C71.5008 24.16 72.4608 23.7733 73.2075 23C73.9808 22.2267 74.3675 21.2267 74.3675 20C74.3675 18.7733 73.9808 17.7733 73.2075 17C72.4608 16.2267 71.5008 15.84 70.3275 15.84C69.1808 15.84 68.2208 16.2267 67.4475 17C66.7008 17.7733 66.3275 18.7733 66.3275 20C66.3275 21.2267 66.7008 22.2267 67.4475 23C68.2208 23.7733 69.1808 24.16 70.3275 24.16ZM106.888 9.44C109.208 9.44 111.034 10.1867 112.368 11.68C113.728 13.1467 114.408 15.1733 114.408 17.76V30H107.728V18.52C107.728 16.6533 106.901 15.72 105.248 15.72C104.341 15.72 103.648 16.0267 103.168 16.64C102.714 17.2267 102.488 18.04 102.488 19.08V30H95.8478V18.52C95.8478 16.6533 95.0078 15.72 93.3278 15.72C92.4211 15.72 91.7278 16.0267 91.2478 16.64C90.7945 17.2267 90.5678 18.04 90.5678 19.08V30H83.9278V10H90.5678V11.88C91.7945 10.2533 93.5945 9.44 95.9678 9.44C98.2611 9.44 99.9678 10.2933 101.088 12C102.474 10.2933 104.408 9.44 106.888 9.44ZM121.87 30.56C120.697 30.56 119.697 30.16 118.87 29.36C118.07 28.5333 117.67 27.5467 117.67 26.4C117.67 25.2533 118.084 24.28 118.91 23.48C119.737 22.6533 120.724 22.24 121.87 22.24C123.017 22.24 123.99 22.6533 124.79 23.48C125.617 24.28 126.03 25.2533 126.03 26.4C126.03 27.5467 125.617 28.5333 124.79 29.36C123.99 30.16 123.017 30.56 121.87 30.56Z" fill="#27272A"/>
<path d="M135.913 15.84C135.913 16.2133 136.246 16.52 136.913 16.76C137.606 17 138.433 17.2267 139.393 17.44C140.379 17.6533 141.353 17.96 142.313 18.36C143.299 18.7333 144.126 19.3867 144.793 20.32C145.486 21.2533 145.833 22.4267 145.833 23.84C145.833 26.1333 144.979 27.8267 143.273 28.92C141.566 30.0133 139.539 30.56 137.193 30.56C132.713 30.56 129.726 28.9733 128.233 25.8L134.033 22.88C134.539 24.3467 135.579 25.08 137.153 25.08C138.353 25.08 138.953 24.72 138.953 24C138.953 23.6267 138.619 23.32 137.953 23.08C137.286 22.84 136.473 22.6 135.513 22.36C134.553 22.12 133.593 21.8 132.633 21.4C131.673 21 130.859 20.36 130.193 19.48C129.526 18.5733 129.193 17.4667 129.193 16.16C129.193 14.0267 129.979 12.3733 131.553 11.2C133.126 10.0267 135.019 9.44 137.233 9.44C141.179 9.44 143.926 10.9867 145.473 14.08L139.873 16.6C139.286 15.4533 138.459 14.88 137.393 14.88C136.406 14.88 135.913 15.2 135.913 15.84ZM158.062 30.56C155.102 30.56 152.582 29.5467 150.502 27.52C148.422 25.4667 147.382 22.96 147.382 20C147.382 17.04 148.422 14.5467 150.502 12.52C152.582 10.4667 155.102 9.44 158.062 9.44C161.049 9.44 163.569 10.4667 165.622 12.52C167.702 14.5467 168.742 17.04 168.742 20C168.742 22.96 167.702 25.4667 165.622 27.52C163.569 29.5467 161.049 30.56 158.062 30.56ZM158.062 24.16C159.235 24.16 160.195 23.7733 160.942 23C161.715 22.2267 162.102 21.2267 162.102 20C162.102 18.7733 161.715 17.7733 160.942 17C160.195 16.2267 159.235 15.84 158.062 15.84C156.915 15.84 155.955 16.2267 155.182 17C154.435 17.7733 154.062 18.7733 154.062 20C154.062 21.2267 154.435 22.2267 155.182 23C155.955 23.7733 156.915 24.16 158.062 24.16ZM182.434 7.56C180.141 7.4 178.994 8.21333 178.994 10H182.434V16.36H178.994V30H172.354V16.36H169.834V10H172.354C172.354 7.12 173.194 4.92 174.874 3.4C176.581 1.88 179.101 1.21333 182.434 1.4V7.56ZM197.343 16.36H193.183V22.16C193.183 23.04 193.503 23.5867 194.143 23.8C194.783 24.0133 195.85 24.08 197.343 24V30C193.37 30.48 190.57 30.12 188.943 28.92C187.343 27.6933 186.543 25.4933 186.543 22.32V16.36H183.543V10H186.543V6.4L193.183 4.4V10H197.343V16.36ZM223.166 10H230.206L224.086 30H217.606L214.726 19.84L211.846 30H205.366L199.246 10H206.286L208.926 20.88L211.926 10H217.526L220.526 20.88L223.166 10ZM245.782 10H252.422V30H245.782V28.16C244.422 29.76 242.529 30.56 240.102 30.56C237.436 30.56 235.196 29.56 233.382 27.56C231.596 25.5333 230.702 23.0133 230.702 20C230.702 16.9867 231.596 14.48 233.382 12.48C235.196 10.4533 237.436 9.44 240.102 9.44C242.529 9.44 244.422 10.24 245.782 11.84V10ZM238.542 23.16C239.316 23.96 240.329 24.36 241.582 24.36C242.836 24.36 243.849 23.96 244.622 23.16C245.396 22.36 245.782 21.3067 245.782 20C245.782 18.6933 245.396 17.64 244.622 16.84C243.849 16.04 242.836 15.64 241.582 15.64C240.329 15.64 239.316 16.04 238.542 16.84C237.769 17.64 237.382 18.6933 237.382 20C237.382 21.3067 237.769 22.36 238.542 23.16ZM262.912 13.72C263.285 12.4133 264.032 11.4 265.152 10.68C266.272 9.96 267.525 9.6 268.912 9.6V16.96C267.392 16.72 266.005 17 264.752 17.8C263.525 18.6 262.912 19.9067 262.912 21.72V30H256.272V10H262.912V13.72ZM276.84 22.44C277.507 24.0667 279 24.88 281.32 24.88C282.76 24.88 283.973 24.4133 284.96 23.48L289.76 26.84C287.787 29.32 284.92 30.56 281.16 30.56C277.773 30.56 275.053 29.5733 273 27.6C270.973 25.6 269.96 23.08 269.96 20.04C269.96 17.0267 270.96 14.5067 272.96 12.48C274.96 10.4533 277.507 9.44 280.6 9.44C283.587 9.44 286.053 10.44 288 12.44C289.947 14.44 290.92 16.9467 290.92 19.96C290.92 20.84 290.827 21.6667 290.64 22.44H276.84ZM276.76 17.84H284.44C283.907 15.9733 282.653 15.04 280.68 15.04C278.627 15.04 277.32 15.9733 276.76 17.84Z" fill="#1081FC"/>
</svg>
