<svg width="159" height="30" viewBox="0 0 159 30" fill="none" xmlns="http://www.w3.org/2000/svg">
<path d="M4.795 29V4.955H0.42V0.649998H14.91V4.955H10.605V29H4.795ZM18.1817 29V0.649998H30.5367V4.64H23.9567V12.165H29.0317V16.19H23.9567V25.08H30.6067V29H18.1817ZM42.1034 29.385C40.0034 29.385 38.335 28.9883 37.0984 28.195C35.885 27.4017 35.0334 26.305 34.5434 24.905C34.0534 23.4817 33.8084 21.8367 33.8084 19.97V9.785C33.8084 7.825 34.0534 6.145 34.5434 4.745C35.0334 3.32167 35.885 2.225 37.0984 1.455C38.335 0.684998 40.0034 0.299998 42.1034 0.299998C44.1334 0.299998 45.72 0.638332 46.8634 1.315C48.03 1.99167 48.8467 2.94833 49.3134 4.185C49.8034 5.42167 50.0484 6.85667 50.0484 8.49V10.87H44.4484V8.21C44.4484 7.55667 44.4134 6.95 44.3434 6.39C44.2734 5.80667 44.075 5.34 43.7484 4.99C43.445 4.61667 42.9084 4.43 42.1384 4.43C41.3684 4.43 40.8084 4.61667 40.4584 4.99C40.1084 5.36333 39.8867 5.85333 39.7934 6.46C39.7 7.04333 39.6534 7.69667 39.6534 8.42V21.3C39.6534 22.0933 39.7117 22.7933 39.8284 23.4C39.9684 23.9833 40.2134 24.4383 40.5634 24.765C40.9367 25.0683 41.4617 25.22 42.1384 25.22C42.885 25.22 43.41 25.045 43.7134 24.695C44.04 24.3217 44.2384 23.8317 44.3084 23.225C44.4017 22.6183 44.4484 21.9767 44.4484 21.3V18.535H50.0484V20.88C50.0484 22.5367 49.815 24.0067 49.3484 25.29C48.8817 26.55 48.0767 27.5533 46.9334 28.3C45.79 29.0233 44.18 29.385 42.1034 29.385ZM54.3441 29V0.649998H60.1191V12.305H65.1241V0.649998H70.8991V29H65.1241V16.435H60.1191V29H54.3441ZM89.1204 29V17.765L83.5904 0.649998H89.0154L92.0604 10.625L94.8954 0.649998H100.145L94.6854 17.765V29H89.1204ZM100.57 29L106.065 0.649998H112.47L117.93 29H112.575L111.56 22.77H107.08L105.995 29H100.57ZM107.605 19.235H111L109.285 7.79L107.605 19.235ZM121.503 29V0.649998H128.853C130.766 0.649998 132.399 0.871665 133.753 1.315C135.129 1.735 136.179 2.49333 136.903 3.59C137.649 4.68667 138.023 6.20333 138.023 8.14C138.023 9.30667 137.918 10.345 137.708 11.255C137.521 12.1417 137.171 12.9233 136.658 13.6C136.168 14.2533 135.468 14.7783 134.558 15.175L138.478 29H132.563L129.308 16.155H127.278V29H121.503ZM127.278 12.725H128.958C129.891 12.725 130.626 12.5733 131.163 12.27C131.699 11.9667 132.073 11.5117 132.283 10.905C132.516 10.275 132.633 9.505 132.633 8.595C132.633 7.28833 132.388 6.29666 131.898 5.62C131.431 4.92 130.544 4.57 129.238 4.57H127.278V12.725ZM142.608 29V0.649998H149.538C151.941 0.649998 153.808 0.964998 155.138 1.595C156.491 2.20167 157.448 3.17 158.008 4.5C158.568 5.80666 158.848 7.48666 158.848 9.54V19.865C158.848 21.965 158.568 23.6917 158.008 25.045C157.448 26.3983 156.503 27.4017 155.173 28.055C153.866 28.685 152.035 29 149.678 29H142.608ZM148.383 24.975H149.608C150.681 24.975 151.44 24.8117 151.883 24.485C152.35 24.135 152.641 23.6333 152.758 22.98C152.875 22.3033 152.933 21.475 152.933 20.495V8.805C152.933 7.825 152.851 7.04333 152.688 6.46C152.548 5.85333 152.245 5.41 151.778 5.13C151.335 4.85 150.6 4.71 149.573 4.71H148.383V24.975Z" fill="#1A1A1A"/>
</svg>
