<svg width="180" height="45" viewBox="0 0 180 45" fill="none" xmlns="http://www.w3.org/2000/svg">
<path fill-rule="evenodd" clip-rule="evenodd" d="M20.2157 44.3312C17.5037 43.2773 13.0043 41.1654 9.71701 39.2298C6.4297 37.2943 4.3524 35.535 2.79548 33.4231C1.23856 31.3133 0.199902 28.853 0.026441 26.3884C-0.14702 23.9259 0.54471 21.4634 1.75682 19.1773C2.96682 16.889 4.69721 14.7771 7.2949 12.1404C9.89047 9.50153 13.3512 6.33579 15.9468 4.22386C18.5424 2.10978 20.2728 1.05596 21.6012 0.529058C22.9297 0 23.8562 0 24.7806 0C25.7072 0 26.6337 0 27.9622 0.529058C29.2906 1.05596 31.021 2.11193 33.6166 4.22386C36.2122 6.33364 39.6729 9.50153 42.2685 12.1404C44.8641 14.7792 46.5966 16.8911 47.8066 19.1773C49.0187 21.4634 49.7104 23.9259 49.537 26.3884C49.3635 28.853 48.327 31.3133 46.7701 33.4253C45.2131 35.5372 43.1358 37.2964 39.8485 39.232C36.5612 41.1654 32.0618 43.2773 29.3499 44.3333C28.5841 44.6322 27.958 44.8473 27.4376 45V23.8076L35.9626 18.803C36.4258 19.0547 36.9526 19.1945 37.5131 19.1945C39.3429 19.1945 40.8258 17.6869 40.8258 15.8266C40.8258 13.9663 39.3429 12.4587 37.5131 12.4587C35.806 12.4587 34.3993 13.7727 34.2216 15.461L30.2891 17.7686L30.2531 17.7901L30.2172 17.8116L30.1812 17.8331L30.1453 17.8546L30.1093 17.8761L30.0733 17.8976L30.0374 17.9191L30.0014 17.9406L29.9655 17.9621L29.9295 17.9837L29.8935 18.0052L29.8576 18.0267L29.8216 18.0482L29.7856 18.0697L29.7497 18.0912L29.7137 18.1127L29.6778 18.1342L29.6418 18.1557L29.6058 18.1751L29.5699 18.1966L29.5339 18.2181L29.498 18.2396C28.9966 18.5256 28.5228 18.7966 28.1103 19.0138C27.4799 19.3407 27.0018 19.5429 26.4645 19.6784C25.9251 19.8138 25.3307 19.8848 24.7214 19.902C24.1101 19.9171 23.4882 19.8827 22.9255 19.7966C22.3628 19.7085 21.8614 19.5751 21.4743 19.4267C21.1168 19.2912 20.8566 19.145 20.607 19.0009L20.5943 18.9945L20.5816 18.9859L20.5562 18.9708L20.5435 18.9643L20.4716 18.9256L20.4589 18.917L20.4462 18.9106L20.4357 18.9041L20.423 18.8977L20.4103 18.8891L20.3976 18.8826L20.3849 18.874L20.3722 18.8676L20.3595 18.8611L20.3468 18.8547L20.3341 18.8461L20.3214 18.8396L20.3087 18.8289L20.296 18.8224L20.2833 18.8138L20.2749 18.8095L20.2685 18.8073L20.2558 18.8009L20.2432 18.7944L20.2305 18.788L20.2178 18.7794L20.2051 18.7729L20.1924 18.7665L20.1797 18.76L20.167 18.7536L20.1543 18.7471L20.1416 18.7407L20.1289 18.7321L20.1162 18.7256L20.1035 18.717H20.1014L20.0972 18.7063L20.0845 18.6998L20.0718 18.6912L20.0591 18.6848L20.0464 18.6762L20.0337 18.6697L20.0083 18.6568L19.9957 18.6482L19.983 18.6418L19.9703 18.6331L19.9576 18.6267L19.9449 18.6181L19.9216 18.6052L19.9089 18.5987L19.8962 18.5923L19.8857 18.5815L19.873 18.5751L19.837 18.5536L19.8243 18.545L19.8116 18.5364L19.7989 18.5299L19.7862 18.5235L19.7482 18.502L19.7355 18.4934L14.5697 15.461C14.3899 13.7727 12.9853 12.4587 11.2782 12.4587C9.44836 12.4587 7.96547 13.9663 7.96547 15.8266C7.96547 17.6869 9.44836 19.1945 11.2782 19.1945C11.8387 19.1945 12.3676 19.0525 12.8287 18.803L21.3516 23.8054V44.7505C21.011 44.6322 20.6366 44.4946 20.2157 44.3312ZM24.7806 6.18739C22.6145 6.18739 20.8608 7.97242 20.8608 10.1725C20.8608 12.3748 22.6145 14.1577 24.7806 14.1577C26.9468 14.1577 28.7005 12.3748 28.7005 10.1725C28.7026 7.97242 26.9468 6.18739 24.7806 6.18739Z" fill="#8AB845"/>
<path fill-rule="evenodd" clip-rule="evenodd" d="M57.5117 14.9705H59.4727V29.3325H57.5117V14.9705ZM174.418 20.8224L178.04 14.9705H180.001L175.398 22.4074V29.3325H173.437V22.4074L168.834 14.9705H170.795L174.418 20.8224ZM157.893 26.7044L162.265 14.9705H163.097H164.226H165.058V29.3325H163.097V18.0029L158.874 29.3347H156.914L152.689 18.0008V29.3325H150.728V14.9705H151.56H152.689H153.52L157.893 26.7044ZM147.415 27.3389V29.3325H140.401H139.874H138.44V14.9705H139.874H140.401H147.415V16.9642H140.401V21.1558H146.787V23.1494H140.401V27.341H147.415V27.3389ZM127.903 17.076H125.633V27.227H127.903C129.278 27.227 130.526 26.6571 131.427 25.7388C132.335 24.8183 132.895 23.5473 132.895 22.1515C132.895 20.7536 132.335 19.4826 131.434 18.5686C130.526 17.6459 129.278 17.076 127.903 17.076ZM123.651 14.9641H127.903C129.843 14.9641 131.609 15.7706 132.891 17.0739C134.177 18.3815 134.973 20.1772 134.973 22.1494C134.973 24.1237 134.177 25.9194 132.898 27.2227C131.611 28.5303 129.845 29.339 127.905 29.339H125.238V29.3325H123.675V14.9705L123.651 14.9641ZM113.851 14.9705H114.623H115.812H116.584L121.451 29.3325H119.49L118.304 25.8291H112.133L110.946 29.3325H108.985L113.851 14.9705ZM115.217 16.7255L112.808 23.8355H117.627L115.217 16.7255ZM101.556 14.4673C97.5707 14.4673 94.3405 17.7513 94.3405 21.8031C94.3405 25.8549 97.5707 29.139 101.556 29.139C104.693 29.139 107.361 27.1044 108.355 24.2613H105.95C105.097 25.8356 103.447 26.9023 101.554 26.9023C98.7849 26.9023 96.5384 24.6205 96.5384 21.8031C96.5384 18.9858 98.7828 16.704 101.554 16.704C103.636 16.704 105.419 17.9922 106.18 19.8267H108.505C107.659 16.7341 104.869 14.4673 101.556 14.4673ZM78.9553 25.8291H72.5542V23.8355H78.9553V25.8291ZM89.6423 25.8291H83.4738L82.2871 29.3325H80.3261L85.1936 14.9705H85.9657H87.1546H87.9267L92.7942 29.3325H90.8332L89.6423 25.8291ZM84.1486 23.8376H88.9675L86.558 16.7276L84.1486 23.8376ZM72.8567 15.1082H62.449V17.1018H66.6713V29.3325H68.6323V17.1018H72.8567V15.1082Z" fill="white"/>
</svg>
