<svg width="350" height="200" viewBox="0 0 514 176" xmlns="http://www.w3.org/2000/svg" style="stroke: rgb(255, 255, 255); stroke-width: 3px; stroke-linejoin: round; stroke-linecap: round;"><g clip-path="url(#clip0_14_2)"><path d="M158.531 1C159.729 2.22724 160.243 3.6666 161.218 4.64963C174.113 17.6526 187.016 30.6491 200.071 43.4901C202.273 45.6556 203.123 47.7726 203.069 50.8182C202.888 61.0911 203 71.3693 203 81.8201C199.627 81.8201 196.673 81.8201 193.328 81.8201C193.328 73.2142 193.328 64.4741 193.328 55.1726C178.769 55.1726 164.581 55.1726 150.018 55.1726C150.018 40.5509 150.018 26.4847 150.018 12.2126C124.579 12.2126 99.5252 12.2126 74.0843 12.2126C74.0843 26.0483 74.0843 39.7819 74.0843 53.7554C70.6357 53.7554 67.5657 53.7554 64 53.7554C64 36.4571 64 19.1972 64 1.46865C95.3542 0.999998 126.708 0.999998 158.531 1ZM162.385 21.921C161.74 21.3583 161.094 20.7956 160.248 20.058C160.248 28.3024 160.248 36.0057 160.248 43.8C168.173 43.8 175.848 43.8 184.496 43.8C176.921 36.2845 169.932 29.3495 162.385 21.921Z" fill="rgba(128, 128, 128, 1)" opacity="1" stroke-dashoffset="0px" stroke-dasharray="577.564208984375px 577.564208984375px"></path><path d="M515 121.531C492.583 122 470.166 122 447.375 122C447.375 118.147 447.375 114.42 447.375 110.214C465.242 110.214 483.305 110.214 501.682 110.214C501.682 106.701 501.682 103.64 501.682 100.106C483.648 100.106 465.584 100.106 447.263 100.106C447.263 88.5866 447.263 77.5284 447.263 66C460.186 66 472.963 65.9433 485.74 66.0187C495.207 66.0745 504.674 66.3019 514.57 66.2264C515 69.6929 515 73.3858 514.57 77.3129C512.506 77.6981 510.872 77.9765 509.237 77.9801C494.103 78.0137 478.97 78 463.837 78C462.261 78 460.684 78 459.226 78C459.226 81.6985 459.226 84.6437 459.226 88C477.965 88 496.483 88 515 88C515 99.0209 515 110.042 515 121.531Z" fill="rgba(251, 176, 59, 1)" opacity="1" stroke-dashoffset="0px" stroke-dasharray="465.4720764160156px 465.4720764160156px"></path><path d="M64.4687 177C64 155.543 64 134.086 64 112.315C67.2238 112.315 70.2975 112.315 73.7484 112.315C73.7484 130.201 73.7484 148.264 73.7484 166.663C113.605 166.663 153.092 166.663 192.954 166.663C192.954 146.907 192.954 127.182 192.954 107.231C196.391 107.231 199.46 107.231 203 107.231C203 130.228 203 153.145 203 176.531C156.979 177 110.958 177 64.4687 177Z" fill="rgba(128, 128, 128, 1)" opacity="1" stroke-dashoffset="0px" stroke-dasharray="525.30078125px 525.30078125px"></path><path d="M1 89.4581C3.40418 87.6467 5.67209 85.7182 8.2521 85.1068C10.6778 84.532 13.4805 85.1093 16.03 85.6177C18.6107 86.1322 21.0824 87.8887 23.6052 87.8958C73.1001 88.036 122.595 88 172.091 88C173.889 88 175.688 88 177.741 88C177.741 92.0877 177.741 95.8161 177.741 100C175.795 100 174.007 100 172.22 100C123.058 100 73.8958 99.9694 24.7341 100.086C22.1291 100.092 19.3042 100.901 16.9666 102.092C10.6775 105.297 8.12376 105.016 1.29882 99.7152C0.999999 96.6387 0.999999 93.2774 1 89.4581ZM13.9171 96.504C16.3373 92.8926 12.9769 91.8059 10.1699 88.704C8.95901 91.5247 7.02965 93.8292 7.48191 95.482C8.1501 97.924 10.6882 99.1852 13.9171 96.504Z" fill="rgba(251, 176, 59, 1)" opacity="1" stroke-dashoffset="0px" stroke-dasharray="404.3589172363281px 404.3589172363281px"></path><path d="M275.926 122C255.804 122 236.174 122 216.273 122C216.273 103.273 216.273 84.8803 216.273 66.0154C234.452 66.0154 252.517 66.0154 270.872 66.0154C270.872 58.6069 270.872 51.6598 270.872 44.3582C274.887 44.3582 278.615 44.3582 282.677 44.3582C282.677 69.9508 282.677 95.6777 282.677 122C280.621 122 278.519 122 275.926 122ZM233.611 110C246.006 110 258.4 110 270.66 110C270.66 98.9519 270.66 88.5725 270.66 78.3373C256.279 78.3373 242.24 78.3373 228.168 78.3373C228.168 88.9347 228.168 99.194 228.168 109.777C229.756 109.856 231.197 109.928 233.611 110Z" fill="rgba(251, 176, 59, 1)" opacity="1" stroke-dashoffset="0px" stroke-dasharray="436.1826477050781px 436.1826477050781px"></path><path d="M293 103.999C293 91.2074 293 78.9155 293 66.3126C315.292 66.3126 337.329 66.3126 359.684 66.3126C359.684 84.6222 359.684 102.997 359.684 121.687C337.709 121.687 315.671 121.687 293 121.687C293 116.009 293 110.254 293 103.999ZM305 90.5112C305 96.9276 305 103.344 305 109.692C319.664 109.692 333.701 109.692 347.687 109.692C347.687 99.0045 347.687 88.6271 347.687 78.3084C333.335 78.3084 319.298 78.3084 305 78.3084C305 82.2488 305 85.8834 305 90.5112Z" fill="rgba(251, 176, 59, 1)" opacity="1" stroke-dashoffset="0px" stroke-dasharray="392.2579650878906px 392.2579650878906px"></path><path d="M399.002 78C393.198 78 387.894 78 382.297 78C382.297 88.6746 382.297 99.0648 382.297 109.919C400.389 109.919 418.447 109.919 436.749 109.919C436.749 114.103 436.749 117.83 436.749 121.779C414.631 121.779 392.698 121.779 370.382 121.779C370.382 103.502 370.382 85.1147 370.382 66.3628C392.202 66.3628 414.253 66.3628 436.653 66.3628C436.653 69.9086 436.653 73.6364 436.653 78C424.345 78 411.923 78 399.002 78Z" fill="rgba(251, 176, 59, 1)" opacity="1" stroke-dashoffset="0px" stroke-dasharray="352.2784423828125px 352.2784423828125px"></path><path d="M109 78C91.0227 78 73.5448 77.9294 56.0689 78.0862C53.7941 78.1067 51.3952 79.0133 49.2894 80.0083C45.2458 81.919 41.1871 82.6539 37.4943 79.8503C33.8856 77.1105 33.143 73.2635 33.8903 68.6747C34.8428 62.8256 44.1249 60.1306 49.0919 63.4352C51.2139 64.847 54.0521 65.8842 56.5696 65.8942C95.019 66.0463 133.469 66 171.919 66C173.731 66 175.543 66 177.677 66C177.677 69.9542 177.677 73.6804 177.677 78C154.978 78 132.239 78 109 78ZM43.4314 68.0079C42.0523 69.1038 39.5196 70.2491 39.5639 71.2841C39.6308 72.8484 41.2312 74.7724 42.7102 75.6628C43.3991 76.0774 46.3398 74.5802 46.4801 73.6741C46.7265 72.0824 45.6278 70.2705 45.0282 68.5735C44.9442 68.3356 44.4969 68.226 43.4314 68.0079Z" fill="rgba(251, 176, 59, 1)" opacity="1" stroke-dashoffset="0px" stroke-dasharray="335.5357666015625px 335.5357666015625px"></path><path d="M98.7156 108.22C101.23 109.006 103.424 109.924 105.622 109.935C127.946 110.041 150.271 110 172.596 110C174.227 110 175.858 110 177.742 110C177.742 114.09 177.742 117.817 177.742 122C173.634 122 169.678 122 165.723 122C145.897 122 126.071 121.958 106.246 122.071C104.443 122.081 102.362 122.685 100.9 123.712C96.6483 126.695 90.2124 126.984 86.8245 123.956C83.9031 121.345 83.0364 115.212 85.0951 111.716C87.765 107.183 92.3208 105.887 98.7156 108.22ZM90.3233 118.817C91.0022 119.249 91.8667 120.189 92.3265 120.021C93.9898 119.413 95.8944 118.741 96.9365 117.464C97.4583 116.825 96.3309 113.651 95.9192 113.645C94.1855 113.619 92.2991 114.097 90.7678 114.937C90.1367 115.282 90.2602 117.005 90.3233 118.817Z" fill="rgba(251, 176, 59, 1)" opacity="1" stroke-dashoffset="0px" stroke-dasharray="233.3865966796875px 233.3865966796875px"></path><path d="M103.003 44C114.81 44 126.118 44 137.712 44C137.712 47.6126 137.712 51.0193 137.712 54.7161C121.053 54.7161 104.315 54.7161 87.2874 54.7161C87.2874 51.3869 87.2874 47.9802 87.2874 44C92.3018 44 97.4026 44 103.003 44Z" fill="rgba(128, 128, 128, 1)" opacity="1" stroke-dashoffset="0px" stroke-dasharray="122.28141021728516px 122.28141021728516px"></path><path d="M87 139.002C87 137.212 87 135.902 87 134.296C103.993 134.296 120.806 134.296 137.81 134.296C137.81 137.467 137.81 140.53 137.81 143.796C120.933 143.796 104.24 143.796 87.1994 143.796C87.1322 142.341 87.0661 140.911 87 139.002Z" fill="rgba(128, 128, 128, 1)" opacity="1" stroke-dashoffset="0px" stroke-dasharray="120.42477416992188px 120.42477416992188px"></path><path d="M207 93.0656C207 95.8381 207 98.1314 207 100.711C200.667 100.711 194.628 100.711 188.293 100.711C188.293 96.6647 188.293 92.6182 188.293 88.283C194.346 88.283 200.385 88.283 206.764 88.283C206.843 89.7206 206.921 91.1535 207 93.0656Z" fill="rgba(251, 176, 59, 1)" opacity="1" stroke-dashoffset="0px" stroke-dasharray="62.03987503051758px 62.03987503051758px"></path></g><defs><clipPath id="clip0_14_2"><rect width="514" height="176" fill="white"></rect></clipPath></defs></svg>