<?xml version="1.0" encoding="UTF-8"?>
<svg xmlns="http://www.w3.org/2000/svg" width="450" height="97" viewBox="0 0 450 97" fill="none">
  <path d="M108.394 0H134.671V9.67742H124.817V64.5161H118.248V9.67742H108.394V0Z" fill="#141414"></path>
  <path d="M160.949 64.5161C160.494 62.86 160.949 63.3592 160.949 58.0645V45.1613C160.949 39.166 158.254 38.7097 154.38 38.7097V64.5161H144.526V0H157.664C166.415 0 170.803 6.17651 170.803 16.129V19.3548C170.803 25.9871 168.001 30.1402 164.234 32.2581C168.456 34.3759 170.803 38.4413 170.803 45.1613V58.0645C170.803 61.2016 169.958 62.1196 170.803 64.5161H160.949ZM154.38 9.67742V29.0323H157.664C160.81 29.0323 160.949 27.7399 160.949 22.5806V16.129C160.949 11.527 160.661 9.67742 157.664 9.67742H154.38Z" fill="#141414"></path>
  <path d="M190.511 0V51.6129C190.511 56.3932 190.963 58.0645 193.796 58.0645C196.628 58.0645 197.08 56.3932 197.08 51.6129V0H206.934V51.6129C206.934 62.3458 202.448 67.7419 193.796 67.7419C185.143 67.7419 180.657 62.3212 180.657 51.6129V0H190.511Z" fill="#141414"></path>
  <path d="M243.066 41.9355V51.6129C243.066 62.2399 238.576 67.7419 229.927 67.7419C221.278 67.7419 216.788 62.2072 216.788 51.6129V16.129C216.788 5.50221 221.278 0 229.927 0C238.576 0 243.066 5.5349 243.066 16.129V22.5806H233.212V16.129C233.212 11.396 232.767 9.67742 229.927 9.67742C227.087 9.67742 226.642 11.3878 226.642 16.129V51.6129C226.642 56.3459 227.087 58.0645 229.927 58.0645C232.767 58.0645 233.212 56.3459 233.212 51.6129V41.9355H243.066Z" fill="#141414"></path>
  <path d="M266.058 38.7097L262.774 45.1613V64.5161H252.92V0H262.774V29.0323L272.628 0H282.482L269.343 29.0323L282.482 64.5161H272.628L266.058 38.7097Z" fill="#141414"></path>
  <path d="M302.19 0C310.761 0 315.328 5.5349 315.328 16.129V19.3548H305.474V16.129C305.474 11.396 304.995 9.67742 302.19 9.67742C299.384 9.67742 298.905 11.3878 298.905 16.129C298.905 20.8702 299.672 23.073 305.474 29.0323C312.872 36.6998 315.328 44.0435 315.328 51.6129C315.328 62.2399 310.839 67.7419 302.19 67.7419C293.541 67.7419 289.051 62.2072 289.051 51.6129V48.3871H298.905V51.6129C298.905 56.3459 299.35 58.0645 302.19 58.0645C305.029 58.0645 305.474 56.3459 305.474 51.6129C305.474 46.8799 304.705 44.6687 298.905 38.7097C291.532 31.0419 289.051 23.6987 289.051 16.129C289.042 5.55124 293.619 0 302.19 0Z" fill="#141414"></path>
  <path d="M325.183 0H351.46V9.67742H341.606V64.5161H335.037V9.67742H325.183V0Z" fill="#141414"></path>
  <path d="M384.307 64.5161H374.453V51.6129H364.599L361.314 64.5161H354.745L364.599 0H374.453L384.307 64.5161ZM364.599 45.1613H374.453L367.883 12.9032L364.599 45.1613Z" fill="#141414"></path>
  <path d="M404.015 29.0323H413.869V38.7097H404.015V64.5161H394.161V0H417.153V9.67742H404.015V29.0323Z" fill="#141414"></path>
  <path d="M436.861 29.0323H446.715V38.7097H436.861V64.5161H427.007V0H450V9.67742H436.861V29.0323Z" fill="#141414"></path>
  <path d="M26.2774 0H0V25.8065H26.2774V0Z" fill="#22346A"></path>
  <path d="M62.4087 0H36.1313V25.8065H62.4087V0Z" fill="#96D4F4"></path>
  <path d="M98.5401 0H72.2627V25.8065H98.5401V0Z" fill="#31AB54"></path>
  <path d="M26.2774 35.4839H0V61.2903H26.2774V35.4839Z" fill="#ED6730"></path>
  <path d="M62.4087 35.4839H36.1313V61.2903H62.4087V35.4839Z" fill="#1B79BC"></path>
  <path d="M98.5401 35.4839H72.2627V61.2903H98.5401V35.4839Z" fill="#C0D137"></path>
  <path d="M98.5401 70.9678H72.2627V96.7742H98.5401V70.9678Z" fill="#94B7E1"></path>
  <path d="M62.4087 70.9678H36.1313V96.7742H62.4087V70.9678Z" fill="#C8CDCB"></path>
  <path d="M26.2774 70.9678H0V96.7742H26.2774V70.9678Z" fill="#FCCD41"></path>
  <path d="M128.102 80.6452H124.818C124.818 78.6518 123.87 77.4194 121.533 77.4194C119.196 77.4194 118.248 78.6828 118.248 80.6452C118.248 85.617 128.102 84.081 128.102 90.3226C128.102 93.6781 125.998 96.7743 121.533 96.7743C117.068 96.7743 114.964 93.6781 114.964 90.3226H118.248C118.248 92.316 119.204 93.5484 121.533 93.5484C123.862 93.5484 124.818 92.316 124.818 90.3226C124.818 85.3816 114.964 86.9099 114.964 80.6452C114.964 77.2203 117.161 74.1936 121.533 74.1936C125.905 74.1936 128.102 77.2818 128.102 80.6452Z" fill="#B7B9C0"></path>
  <path d="M154.38 80.6452C154.38 77.2569 156.567 74.1936 160.949 74.1936C165.331 74.1936 167.518 77.2569 167.518 80.6452V90.3226C167.518 93.6801 165.369 96.7743 160.949 96.7743C156.529 96.7743 154.38 93.6801 154.38 90.3226V80.6452ZM157.664 90.3226C157.664 92.3433 158.655 93.5484 160.949 93.5484C163.243 93.5484 164.234 92.3433 164.234 90.3226V80.6452C164.234 78.6552 163.281 77.4194 160.949 77.4194C158.617 77.4194 157.664 78.6552 157.664 80.6452V90.3226Z" fill="#B7B9C0"></path>
  <path d="M197.08 96.7743V74.1936H200.365V93.5484H210.219V96.7743H197.08Z" fill="#B7B9C0"></path>
  <path d="M236.496 90.3226C236.496 92.3297 237.39 93.5484 239.781 93.5484C242.172 93.5484 243.066 92.3297 243.066 90.3226V74.1936H246.35V90.3226C246.35 93.7089 244.314 96.7743 239.781 96.7743C235.248 96.7743 233.212 93.7089 233.212 90.3226V74.1936H236.496V90.3226Z" fill="#B7B9C0"></path>
  <path d="M279.197 96.7743V77.4194H272.628V74.1936H289.051V77.4194H282.482V96.7743H279.197Z" fill="#B7B9C0"></path>
  <path d="M315.329 74.1936V96.7743H312.044V74.1936H315.329Z" fill="#B7B9C0"></path>
  <path d="M341.606 80.6452C341.606 77.2569 343.796 74.1936 348.175 74.1936C352.555 74.1936 354.745 77.2569 354.745 80.6452V90.3226C354.745 93.6801 352.593 96.7743 348.175 96.7743C343.758 96.7743 341.606 93.6801 341.606 90.3226V80.6452ZM344.891 90.3226C344.891 92.3433 345.883 93.5484 348.175 93.5484C350.467 93.5484 351.46 92.3433 351.46 90.3226V80.6452C351.46 78.6552 350.506 77.4194 348.175 77.4194C345.845 77.4194 344.891 78.6552 344.891 80.6452V90.3226Z" fill="#B7B9C0"></path>
  <path d="M387.591 96.7743H384.307V74.1936H387.591L397.445 90.3226V74.1936H400.73V96.7743H397.445L387.591 77.4194V96.7743Z" fill="#B7B9C0"></path>
  <path d="M436.861 80.6452H433.577C433.577 78.6518 432.62 77.4194 430.292 77.4194C427.962 77.4194 427.007 78.6828 427.007 80.6452C427.007 85.617 436.861 84.081 436.861 90.3226C436.861 93.6781 434.758 96.7743 430.292 96.7743C425.828 96.7743 423.723 93.6781 423.723 90.3226H427.007C427.007 92.316 427.956 93.5484 430.292 93.5484C432.628 93.5484 433.577 92.316 433.577 90.3226C433.577 85.3816 423.723 86.9099 423.723 80.6452C423.723 77.2203 425.914 74.1936 430.292 74.1936C434.672 74.1936 436.861 77.2818 436.861 80.6452Z" fill="#B7B9C0"></path>
</svg>
